<?xml version="1.0" encoding="UTF-8" standalone="no"?>
<!DOCTYPE svg PUBLIC "-//W3C//DTD SVG 1.1//EN" "http://www.w3.org/Graphics/SVG/1.1/DTD/svg11.dtd">
<svg width="100%" height="100%" viewBox="0 0 2481 1749" version="1.1" xmlns="http://www.w3.org/2000/svg" xmlns:xlink="http://www.w3.org/1999/xlink" xml:space="preserve" xmlns:serif="http://www.serif.com/" style="fill-rule:evenodd;clip-rule:evenodd;stroke-linecap:round;stroke-linejoin:round;stroke-miterlimit:1.5;">
    <path d="M744.75,1231.36C757.926,1192.59 851.29,1020.45 861.086,1002.39C938.355,859.926 944.389,864.18 1024.58,723.84" style="fill:none;stroke:white;stroke-width:10.12px;"/>
    <path d="M744.75,1232.16C748.041,1229.92 748.401,1243.67 794.476,1232.5C809.828,1228.78 964.39,1209.01 1033.06,1217.97C1120.7,1229.4 1303.49,1213.32 1344.31,1211.91C1409.57,1209.66 1645.76,1228.43 1742.76,1224.02" style="fill:none;stroke:white;stroke-width:10.12px;"/>
    <path d="M1741.34,1225.26C1745.31,1201.83 1759.28,1207.06 1816.64,1072.63C1887.07,907.559 1948.56,843.358 1964.39,783.184C1967.24,772.361 1990.71,727.901 1992.25,720.207" style="fill:none;stroke:white;stroke-width:10.12px;"/>
    <path d="M1005.75,734.969C1099.54,723.523 1114.04,706.049 1200.19,715.363C1367.5,733.45 1961.19,724.356 2029.79,727.474" style="fill:none;stroke:white;stroke-width:10.12px;"/>
    <path d="M743.61,296.325C749.904,277.444 728.168,274.539 726.655,292.692C723.986,324.712 759.151,314.085 752.088,299.958" style="fill:none;stroke:white;stroke-width:10.12px;"/>
    <path d="M1366.11,979.381C1372.57,971.307 1449.67,817.113 1443.62,829.205" style="fill:none;stroke:white;stroke-width:10.12px;"/>
    <path d="M1406.08,849.794C1425.77,834.476 1424.79,834.006 1444.5,818.823C1447.41,841.55 1446.16,841.35 1452.1,863.116" style="fill:none;stroke:white;stroke-width:10.12px;"/>
    <path d="M1377,977.469C1368.46,973.836 1558.85,985.521 1561.1,986.647" style="fill:none;stroke:white;stroke-width:10.12px;"/>
    <path d="M1523.55,968.481C1559.87,977.56 1559.3,981.864 1557.46,984.225C1553.68,989.09 1528.19,1000.82 1517.5,1007.24" style="fill:none;stroke:white;stroke-width:10.12px;"/>
    <path d="M1370.95,976.959C1384.59,980.366 1376.5,992.359 1511.44,1082.32C1511.91,1082.64 1515.08,1084.75 1517.5,1085.96C1521.9,1088.16 1521.04,1086 1521.13,1085.96" style="fill:none;stroke:white;stroke-width:10.12px;"/>
    <path d="M1498.12,1045.99C1500.78,1049.32 1534.06,1090.91 1517.5,1095.64C1514.54,1096.49 1515.17,1092.2 1479.95,1087.17" style="fill:none;stroke:white;stroke-width:10.12px;"/>
    <path d="M1361.25,1037.77C1362.67,1034.68 1367.1,1040.15 1395.18,1012.08" style="fill:none;stroke:white;stroke-width:10.12px;"/>
    <path d="M1337.05,1009.66C1355.62,1022.04 1352.69,1024.51 1369.74,1038.72" style="fill:none;stroke:white;stroke-width:10.12px;"/>
    <path d="M1399.18,931.119C1423.44,930.134 1423.12,936.979 1446.99,932.999C1433.43,957.911 1435.66,958.75 1418.19,980.592" style="fill:none;stroke:white;stroke-width:10.12px;"/>
    <path d="M1602.64,992.225C1600.83,1006.46 1624.98,1024.57 1627.71,1026.61" style="fill:none;stroke:white;stroke-width:10.12px;"/>
    <path d="M1604.25,1029.11C1604.58,1027.24 1604.76,1027.58 1626.5,996.336" style="fill:none;stroke:white;stroke-width:10.12px;"/>
    <path d="M1484.8,797.717C1485.03,800.009 1487.18,821.521 1495.7,824.361C1509.41,828.933 1504.91,819.657 1513.86,791.662C1513.86,811.707 1511.77,811.769 1516.29,821.939C1533.66,861.028 1513.14,859.33 1511.44,857.06C1499.94,841.72 1526.98,823.694 1529.61,821.939" style="fill:none;stroke:white;stroke-width:10.12px;"/>
    <path d="M1486.01,1128.35C1490.16,1111.75 1512.86,1109.42 1513.86,1123.5C1516.15,1155.51 1490.86,1169.52 1505.39,1171.94C1517.57,1173.98 1523.47,1169.57 1538.09,1162.26" style="fill:none;stroke:white;stroke-width:10.12px;"/>
    <path d="M1488.43,1141.67L1525.98,1141.67" style="fill:none;stroke:white;stroke-width:10.12px;"/>
    <path d="M1286.04,1026.23C1284.97,1026.61 1286.81,1025.98 1287.39,1025.4" style="fill:none;stroke:white;stroke-width:10.12px;"/>
    <path d="M1311.75,1013.08L1311.61,1010.87" style="fill:none;stroke:white;stroke-width:10.12px;"/>
    <path d="M1341.32,992.866C1341.11,992.812 1340.89,992.757 1340.68,992.703" style="fill:none;stroke:white;stroke-width:10.12px;"/>
    <path d="M1368.96,981.8L1368.53,981.803" style="fill:none;stroke:white;stroke-width:10.12px;"/>
    <path d="M734.304,329.359C734.231,332.723 733.921,347.191 735.132,371.413" style="fill:none;stroke:white;stroke-width:10.12px;"/>
    <path d="M730.929,461.997C731.119,476.612 731.309,491.228 731.499,505.844" style="fill:none;stroke:white;stroke-width:10.12px;"/>
    <path d="M731.893,623.182C731.331,626.835 732.063,626.593 733.921,669.341" style="fill:none;stroke:white;stroke-width:10.12px;"/>
    <path d="M738.643,815.322L738.766,829.205" style="fill:none;stroke:white;stroke-width:10.12px;"/>
    <path d="M729.161,754.697C730.194,796.354 728.657,795.989 732.71,824.361" style="fill:none;stroke:white;stroke-width:10.12px;"/>
    <path d="M729.482,945.232C729.347,966.708 729.212,988.183 729.077,1009.66" style="fill:none;stroke:white;stroke-width:10.12px;"/>
    <path d="M741.375,1133.52C741.331,1138.24 741.188,1153.78 742.399,1192.53L742.399,1198.59" style="fill:none;stroke:white;stroke-width:10.12px;"/>
    <path d="M757.607,316.529C758.143,319.336 763.608,329.172 764.199,330.236" style="fill:none;stroke:white;stroke-width:10.12px;"/>
    <path d="M802.768,399.287C820.843,421.99 819.761,422.363 832.02,448.923" style="fill:none;stroke:white;stroke-width:10.12px;"/>
    <path d="M885.054,521.659C885.447,529.05 887.53,529.366 887.73,530.066L910.135,552.471" style="fill:none;stroke:white;stroke-width:10.12px;"/>
    <path d="M951.268,623.503L986.623,658.858" style="fill:none;stroke:white;stroke-width:10.12px;"/>
    <path d="M772.071,277.876C779.274,295.664 788.777,281.232 857.453,313.28" style="fill:none;stroke:white;stroke-width:10.12px;"/>
    <path d="M972.321,351.011C1000.23,361.977 1000.52,360.037 1028.22,372.624" style="fill:none;stroke:white;stroke-width:10.12px;"/>
    <path d="M1172.34,423.49C1175.6,425.121 1176.21,423.062 1215.94,436.812" style="fill:none;stroke:white;stroke-width:10.12px;"/>
    <path d="M1335.21,469.855C1337.2,472.639 1384.62,480.397 1410.92,486.467" style="fill:none;stroke:white;stroke-width:10.12px;"/>
    <path d="M1504.61,512.357C1512.72,523.479 1522.29,520.962 1565.94,537.332" style="fill:none;stroke:white;stroke-width:10.12px;"/>
    <path d="M1667.09,579.718C1669.81,583.4 1684.26,588.816 1685.84,589.409C1716.18,600.786 1713.22,607.322 1745.18,614.842" style="fill:none;stroke:white;stroke-width:10.12px;"/>
    <path d="M1826.52,645.636C1828.71,647.13 1827.45,650.102 1908.68,671.764" style="fill:none;stroke:white;stroke-width:10.12px;"/>
    <path d="M1959.91,710.431C1959.73,711.084 1959.83,710.71 1966.81,715.363" style="fill:none;stroke:white;stroke-width:10.12px;"/>
    <path d="M794.411,312.519C810.683,327.423 809.892,327.635 824.753,343.558" style="fill:none;stroke:white;stroke-width:10.12px;"/>
    <path d="M914.786,416.608C914.194,419.534 915.503,419.302 937.385,442.867" style="fill:none;stroke:white;stroke-width:10.12px;"/>
    <path d="M1059.27,536.735C1061.66,542.88 1062.44,544.885 1122.68,589.409" style="fill:none;stroke:white;stroke-width:10.12px;"/>
    <path d="M1188.64,631.522C1190.76,648.22 1204.76,654.654 1215.94,660.864" style="fill:none;stroke:white;stroke-width:10.12px;"/>
    <path d="M1282.82,710.431C1286.67,719.274 1288.11,717.634 1295.87,723.84" style="fill:none;stroke:white;stroke-width:10.12px;"/>
    <path d="M1372.17,987.858C1386.84,965.85 1357.12,960.638 1354,979.381C1351.62,993.692 1378.94,987.77 1380.64,981.803C1383.04,973.43 1359.99,962.692 1356.42,976.959" style="fill:none;stroke:white;stroke-width:10.12px;"/>
    <path d="M1317.05,940.902C1324.6,937.504 1333.12,901.372 1305.56,892.182C1291.82,887.604 1278.94,921.837 1291.02,940.626C1293.33,944.22 1317.62,980.786 1335.83,911.56" style="fill:none;stroke:white;stroke-width:10.12px;"/>
</svg>
