<?xml version="1.0" encoding="UTF-8" standalone="no"?>
<!DOCTYPE svg PUBLIC "-//W3C//DTD SVG 1.1//EN" "http://www.w3.org/Graphics/SVG/1.1/DTD/svg11.dtd">
<svg width="100%" height="100%" viewBox="0 0 3508 2481" version="1.1" xmlns="http://www.w3.org/2000/svg" xmlns:xlink="http://www.w3.org/1999/xlink" xml:space="preserve" xmlns:serif="http://www.serif.com/" style="fill-rule:evenodd;clip-rule:evenodd;stroke-linecap:round;stroke-linejoin:round;stroke-miterlimit:1.5;">
    <path d="M861.906,1063.69C861.759,1061.57 895.772,969.957 914.651,928.423C964.749,818.207 958.841,816.063 979.738,774.268" style="fill:transparent;stroke:white;stroke-width:18.4px;"/>
    <path d="M846.677,638.164C846.138,637.242 843.053,635.699 842.712,635.529" style="fill:transparent;stroke:white;stroke-width:18.4px;"/>
    <path d="M1133.98,931.907C1134.01,931.973 1133.97,931.92 1229.81,1020.92C1238.9,1029.35 1237.93,1029.04 1339.43,1130.54" style="fill:transparent;stroke:white;stroke-width:18.4px;"/>
    <path d="M1284.45,1125.62C1287.12,1130.16 1363.51,1183.92 1327.44,1075.73" style="fill:transparent;stroke:white;stroke-width:18.4px;"/>
    <path d="M1164.66,950.053C1172.48,941.321 1189.92,915.378 1190.42,914.72C1195.66,907.728 1189.84,907.711 1166.44,882.176" style="fill:transparent;stroke:white;stroke-width:18.4px;"/>
    <path d="M732.347,474.848C727.227,482.179 740.297,519.829 745.081,553.313" style="fill:transparent;stroke:white;stroke-width:18.4px;"/>
    <path d="M714.25,481.374C741.835,473.493 740.77,471.208 769.06,467.672" style="fill:transparent;stroke:white;stroke-width:18.4px;"/>
    <path d="M731.211,514.089C750.133,518.246 749.545,514.395 769.06,510.492" style="fill:transparent;stroke:white;stroke-width:18.4px;"/>
    <path d="M835.54,524.977C876.997,519.039 845.124,444.496 810.168,489.938C781.998,526.559 854.385,558.955 861.553,508.779" style="fill:transparent;stroke:white;stroke-width:18.4px;"/>
    <path d="M911.225,465.959C877.113,511.441 921.165,532.984 952.333,512.205" style="fill:transparent;stroke:white;stroke-width:18.4px;"/>
    <path d="M994.647,462.372C994.953,467.64 1002.19,509.5 1015.71,520.769C1020.11,524.435 1035.49,527.883 1041.4,453.969C1043.37,489.329 1037.27,492.664 1061.95,517.344" style="fill:transparent;stroke:white;stroke-width:18.4px;"/>
    <path d="M1125.33,448.83C1104.08,455.914 1107.58,459.85 1092.96,474.883C1136.45,486.744 1137.65,484.443 1142.46,491.651C1148.48,500.683 1145.24,533.744 1115.05,515.631" style="fill:transparent;stroke:white;stroke-width:18.4px;"/>
    <path d="M1310.36,1094.54C1313.71,1091.15 1315.93,1106.49 1341.14,1125.4" style="fill:transparent;stroke:white;stroke-width:18.4px;"/>
    <path d="M1289.76,1204.19C1260.61,1208.35 1261.6,1209.73 1234.65,1222.99C1245.52,1225.95 1313.38,1239.32 1289.76,1259C1286.02,1262.12 1236.88,1285 1248.65,1255.57" style="fill:transparent;stroke:white;stroke-width:18.4px;"/>
    <path d="M1329,1215.9C1331.91,1240.35 1331.6,1239.64 1337.72,1264.14" style="fill:transparent;stroke:white;stroke-width:18.4px;"/>
    <path d="M1342.64,1195.93C1342.49,1195.38 1342.86,1195.46 1342.86,1188.77" style="fill:transparent;stroke:white;stroke-width:18.4px;"/>
    <path d="M1411.37,1255.57C1455.36,1226.25 1423.1,1210.13 1409.66,1216.18C1403.77,1218.83 1367.61,1254.68 1418.22,1248.72C1450.63,1244.91 1431.69,1227.52 1433.64,1228.17C1452.48,1234.45 1459.55,1307.72 1428.5,1320.66C1387.39,1337.79 1403.48,1299.18 1404.52,1296.68C1416.27,1268.49 1433.33,1266.04 1433.64,1265.85" style="fill:transparent;stroke:white;stroke-width:18.4px;"/>
    <path d="M1465.6,1157.37C1464.49,1157.93 1465.06,1158.62 1475.46,1255.07L1499.02,1212.83C1511.14,1244.85 1500.73,1267.67 1532.98,1255.57" style="fill:transparent;stroke:white;stroke-width:18.4px;"/>
    <path d="M1549.7,1155.79C1550.37,1210.13 1535.23,1267.3 1586.08,1241.87" style="fill:transparent;stroke:white;stroke-width:18.4px;"/>
    <path d="M1534.93,1179.38C1538.12,1180.21 1564.66,1178.65 1567.24,1178.5" style="fill:transparent;stroke:white;stroke-width:18.4px;"/>
    <path d="M1231.49,1353.81C1241.27,1388.27 1243.21,1387.37 1266.92,1414.73C1269.4,1395.37 1271.87,1376 1274.35,1356.63" style="fill:transparent;stroke:white;stroke-width:18.4px;"/>
    <path d="M1299,1405.3C1318.76,1402.16 1331.98,1362.78 1308.6,1368.62C1302.82,1370.07 1282.16,1424.17 1353.13,1402.88" style="fill:transparent;stroke:white;stroke-width:18.4px;"/>
    <path d="M1387.39,1356.63C1386.1,1359.85 1374.12,1389.82 1380.54,1399.45C1391.12,1415.32 1394.85,1405.44 1414.8,1401.16" style="fill:transparent;stroke:white;stroke-width:18.4px;"/>
    <path d="M1456.29,1324.32C1455.76,1366.37 1458.92,1365.66 1461.04,1407.44C1458.55,1402.01 1436.55,1353.91 1438.78,1336.08C1439.94,1326.79 1444.18,1331.19 1481.6,1329.23" style="fill:transparent;stroke:white;stroke-width:18.4px;"/>
    <path d="M1507.29,1399.45C1537.53,1384.33 1538.25,1363.63 1515.85,1361.77C1479.17,1358.71 1485.31,1380.89 1486.74,1382.32C1493.93,1389.52 1529.18,1395.39 1532.98,1396.03" style="fill:transparent;stroke:white;stroke-width:18.4px;"/>
    <path d="M1558.11,1344.51C1559.79,1375.67 1565.96,1373.61 1580.92,1405.4C1591.91,1356.77 1579.66,1338.58 1610.06,1342.93" style="fill:transparent;stroke:white;stroke-width:18.4px;"/>
    <path d="M1128.75,924.997C1133.19,922.036 1141.01,916.828 1173.29,875.325" style="fill:transparent;stroke:white;stroke-width:18.4px;"/>
    <path d="M832.812,688.52C832.686,689.127 832.561,689.733 832.435,690.339" style="fill:transparent;stroke:white;stroke-width:18.4px;"/>
    <path d="M844.404,756.569L844.425,753.714" style="fill:none;stroke:white;stroke-width:18.4px;"/>
    <path d="M849.632,837.319L849.563,839.355" style="fill:none;stroke:white;stroke-width:18.4px;"/>
    <path d="M853.042,883.139C852.453,883.389 851.865,883.639 851.276,883.889" style="fill:transparent;stroke:white;stroke-width:18.4px;"/>
    <path d="M858.951,950.507C858.677,950.568 858.402,950.628 858.127,950.689" style="fill:transparent;stroke:white;stroke-width:18.4px;"/>
    <path d="M861.679,1005.4C858.802,1009.64 859.747,1009.39 858.127,1017.49" style="fill:transparent;stroke:white;stroke-width:18.4px;"/>
    <path d="M856.451,638.618L856.415,638.954" style="fill:none;stroke:white;stroke-width:18.4px;"/>
    <path d="M886.681,675.364C885.018,675.108 885.885,675.604 883.82,676.637" style="fill:transparent;stroke:white;stroke-width:18.4px;"/>
    <path d="M914.639,709.388C914.072,709.89 913.505,710.392 912.938,710.893" style="fill:transparent;stroke:white;stroke-width:18.4px;"/>
    <path d="M945.551,739.783L945.482,740.011" style="fill:none;stroke:white;stroke-width:18.4px;"/>
    <path d="M967.599,764.961L967.748,765.704" style="fill:none;stroke:white;stroke-width:18.4px;"/>
    <path d="M898.728,651.547C897.522,650.944 902.343,650.944 902.661,650.944" style="fill:transparent;stroke:white;stroke-width:18.4px;"/>
    <path d="M1002.38,691.242C1002.18,691.319 995.27,691.994 1002,688.627" style="fill:transparent;stroke:white;stroke-width:18.4px;"/>
    <path d="M1082.16,708.708C1081.7,708.865 1081.25,709.023 1080.8,709.18" style="fill:transparent;stroke:white;stroke-width:18.4px;"/>
    <path d="M1148.75,727.081C1148.37,726.823 1147.98,726.566 1147.6,726.309" style="fill:transparent;stroke:white;stroke-width:18.4px;"/>
    <path d="M1238.99,738.649C1238.79,739.103 1238.58,739.557 1238.38,740.011" style="fill:transparent;stroke:white;stroke-width:18.4px;"/>
    <path d="M1310.36,751.578C1309.77,752.29 1309.19,753.002 1308.6,753.714" style="fill:transparent;stroke:white;stroke-width:18.4px;"/>
    <path d="M1390.14,778.344C1391.83,780.991 1391.83,778.9 1394.24,777.694" style="fill:transparent;stroke:white;stroke-width:18.4px;"/>
    <path d="M1760.18,434.699C1755.22,444.33 1763.24,513.671 1762.5,517.344C1762.25,518.595 1761.04,512.666 1760.79,513.918" style="fill:transparent;stroke:white;stroke-width:18.4px;"/>
    <path d="M1728.13,446.721C1716.28,441.031 1700.82,437.306 1714.54,438.553C1720.55,439.099 1738.92,440.77 1789.91,438.553" style="fill:transparent;stroke:white;stroke-width:18.4px;"/>
    <path d="M1832.01,506.377C1870.16,490.347 1838.72,457.707 1820.74,464.246C1792.76,474.421 1804.67,520.367 1853.28,493.364" style="fill:transparent;stroke:white;stroke-width:18.4px;"/>
    <path d="M1887.92,456.928C1881.32,458.397 1894.91,553.54 1896.1,561.877" style="fill:transparent;stroke:white;stroke-width:18.4px;"/>
    <path d="M1887.47,466.455C1875.83,452.85 1917.42,438.064 1923.51,452.256C1924.4,454.345 1935.33,494.426 1889.25,503.641" style="fill:transparent;stroke:white;stroke-width:18.4px;"/>
    <path d="M2023.84,422.904C2026.92,467.76 2031.82,466.339 2054.42,505.424C2069.77,438.439 2069.38,439.147 2070.81,433.415" style="fill:transparent;stroke:white;stroke-width:18.4px;"/>
    <path d="M2117.72,457.382C2117.08,480.436 2113.4,480.921 2123.91,501.928" style="fill:transparent;stroke:white;stroke-width:18.4px;"/>
    <path d="M2122.49,422.224C2122.39,422.528 2122.29,422.833 2122.2,423.138" style="fill:transparent;stroke:white;stroke-width:18.4px;"/>
    <path d="M2161.59,495.077C2205.12,462.429 2194.01,445.588 2178.72,447.118C2149.67,450.022 2134.25,518.708 2216.4,510.492" style="fill:transparent;stroke:white;stroke-width:18.4px;"/>
    <path d="M2259.22,445.405C2262.41,488.495 2251.64,496.547 2272.92,503.641C2302.04,513.347 2302.04,456.981 2302.04,452.256C2306.5,486.442 2293.99,499.731 2327.74,505.354C2341.47,507.642 2344.59,499.557 2346.58,495.077C2352.7,481.309 2350.45,481.377 2353.43,447.118" style="fill:transparent;stroke:white;stroke-width:18.4px;"/>
    <path d="M2413.66,458.516C2413.42,458.585 2414.1,458.384 2411.66,460.82" style="fill:transparent;stroke:white;stroke-width:18.4px;"/>
    <path d="M2417.29,503.428C2416.56,502.928 2415.82,502.428 2415.09,501.928" style="fill:transparent;stroke:white;stroke-width:18.4px;"/>
    <path d="M2067.39,714.319C2063.6,706.758 2039.99,702.354 2050.26,722.883" style="fill:transparent;stroke:white;stroke-width:18.4px;"/>
    <path d="M1763.65,987.284C2083.28,992.582 2406.01,971.363 2406.01,974.302" style="fill:transparent;stroke:white;stroke-width:18.4px;"/>
    <path d="M1764.5,951.187L1764.21,950.689" style="fill:none;stroke:white;stroke-width:18.4px;"/>
    <path d="M1800.18,928.731C1800.75,927.486 1801.33,926.242 1801.9,924.997" style="fill:transparent;stroke:white;stroke-width:18.4px;"/>
    <path d="M1861.78,874.746L1861.85,873.612" style="fill:none;stroke:white;stroke-width:18.4px;"/>
    <path d="M1923.15,819.854C1923.64,816.029 1923.84,816.925 1926.93,815.376" style="fill:transparent;stroke:white;stroke-width:18.4px;"/>
    <path d="M1975.43,784.468C1975.25,783.923 1975.07,783.378 1974.89,782.832" style="fill:transparent;stroke:white;stroke-width:18.4px;"/>
    <path d="M2020.21,738.649L2019.43,738.299" style="fill:none;stroke:white;stroke-width:18.4px;"/>
    <path d="M1880.42,850.702C1880.51,850.346 1880.6,849.989 1880.69,849.632" style="fill:transparent;stroke:white;stroke-width:18.4px;"/>
    <path d="M2108.62,731.164C2108.3,731.214 2108.64,731.162 2106.78,734.873" style="fill:transparent;stroke:white;stroke-width:18.4px;"/>
    <path d="M2151.58,770.405C2152.06,770.551 2152.55,770.697 2153.03,770.842" style="fill:transparent;stroke:white;stroke-width:18.4px;"/>
    <path d="M2197.27,812.141C2196.8,812.078 2196.32,812.014 2195.85,811.95" style="fill:transparent;stroke:white;stroke-width:18.4px;"/>
    <path d="M2254.78,857.28L2254.08,856.484" style="fill:none;stroke:white;stroke-width:18.4px;"/>
    <path d="M2295.69,885.18C2294.38,885.321 2293.07,885.461 2291.76,885.602" style="fill:transparent;stroke:white;stroke-width:18.4px;"/>
    <path d="M2348.19,927.37C2347.66,927.721 2347.12,928.072 2346.58,928.423" style="fill:transparent;stroke:white;stroke-width:18.4px;"/>
    <path d="M2426.84,956.177C2426.35,956.061 2425.86,955.944 2425.37,955.828" style="fill:transparent;stroke:white;stroke-width:18.4px;"/>
    <path d="M870.316,1071.18C948.972,1056.75 1282.44,1067.79 1291.47,1072.3" style="fill:transparent;stroke:white;stroke-width:18.4px;"/>
    <path d="M986.01,776.983C989.859,770.33 1145.87,791.184 1198.98,784.545C1281.87,774.184 1281.52,779.406 1365.12,779.406" style="fill:transparent;stroke:white;stroke-width:18.4px;"/>
    <path d="M1374.23,781.973C1406.87,781.406 1406.12,780.816 1438.78,786.258" style="fill:transparent;stroke:white;stroke-width:18.4px;"/>
    <path d="M1443.56,786.51C1421.06,834.923 1392.49,876.478 1387.39,883.889" style="fill:transparent;stroke:white;stroke-width:18.4px;"/>
    <path d="M1358.32,944.609C1331.43,985.17 1337.35,987.389 1315.45,1031.19" style="fill:transparent;stroke:white;stroke-width:18.4px;"/>
    <path d="M1284.9,1085.02C1307.97,1041.99 1391.7,878.733 1404.52,870.186" style="fill:transparent;stroke:white;stroke-width:18.4px;"/>
    <path d="M1969.75,805.79C1971.27,809.733 1979.04,829.811 2014.29,834.217C2083.67,842.89 2084.55,837.624 2144.46,801.673" style="fill:transparent;stroke:white;stroke-width:18.4px;"/>
    <path d="M1962.7,879.056C1966.32,904.267 1961.96,904.102 1968.04,928.423" style="fill:transparent;stroke:white;stroke-width:18.4px;"/>
    <path d="M1945.65,870.89C1941.89,869.226 2007.21,863.783 2012.57,863.335" style="fill:transparent;stroke:white;stroke-width:18.4px;"/>
    <path d="M1957.76,906.156C1961.38,904.707 1961.47,905.755 2004.01,890.74" style="fill:transparent;stroke:white;stroke-width:18.4px;"/>
    <path d="M2065.67,916.433C2080.72,912.671 2107.43,889.972 2079.38,878.751C2034.98,860.993 2030.07,900.038 2034.84,909.581C2048.33,936.559 2082.8,913.576 2086.23,911.294" style="fill:transparent;stroke:white;stroke-width:18.4px;"/>
    <path d="M2116.81,870.436C2117.5,874.475 2120.73,873.042 2139.32,916.433C2156.27,955.967 2164.58,872.805 2165.02,868.474" style="fill:transparent;stroke:white;stroke-width:18.4px;"/>
    <path d="M2497.3,693.765C2519.54,696.941 2519.3,695.121 2557.25,693.765" style="fill:transparent;stroke:white;stroke-width:18.4px;"/>
    <path d="M2531.85,725.493C2531.08,745.99 2542.28,902.062 2540.13,955.828" style="fill:transparent;stroke:white;stroke-width:18.4px;"/>
    <path d="M2503.66,986.572C2504.82,986.316 2524.26,980.822 2557.25,984.946" style="fill:transparent;stroke:white;stroke-width:18.4px;"/>
    <path d="M2626.63,731.844C2620.3,741.478 2633.09,818.225 2634.33,825.653" style="fill:transparent;stroke:white;stroke-width:18.4px;"/>
    <path d="M2624.05,729.734C2627.59,728.101 2680.69,703.595 2672.01,738.299C2667.42,756.679 2630.98,771.959 2629.19,772.555C2629.19,772.555 nan,nan 2629.19,772.555" style="fill:transparent;stroke:white;stroke-width:18.4px;"/>
    <path d="M2700.96,718.915C2696.88,720.353 2701.42,737.203 2702.84,748.576C2710.52,810.005 2697.44,811.289 2707.98,837.643" style="fill:transparent;stroke:white;stroke-width:18.4px;"/>
    <path d="M2740.53,772.555C2749.16,766.077 2749.68,763.319 2759.37,769.129C2776.11,779.176 2769.07,783.951 2778.21,820.514C2778.21,814.365 2785.06,809.535 2785.06,803.386C2785.06,793.752 2713.7,799.231 2740.53,822.227C2758.41,837.559 2760.38,832.907 2783.35,829.078" style="fill:transparent;stroke:white;stroke-width:18.4px;"/>
    <path d="M2833.02,769.129C2842.4,793.518 2841.85,793.299 2845.45,819.379C2867.25,771.634 2873.94,763.422 2877.55,774.268C2882.16,788.078 2882.48,808.744 2884.4,811.95C2891.87,824.389 2895.05,816.214 2913.52,811.95" style="fill:transparent;stroke:white;stroke-width:18.4px;"/>
    <path d="M2934.62,800.346C2984.96,807.207 2978.04,752.654 2956.34,758.853C2950.99,760.382 2941.16,789.949 2952.92,803.386C2973.07,826.418 2976.95,818.591 3007.73,820.514" style="fill:transparent;stroke:white;stroke-width:18.4px;"/>
    <path d="M2624.81,966.158C2683.41,948.008 2622.43,909.415 2613.78,926.71C2604.3,945.654 2623.75,999.204 2649.75,952.402C2675.99,905.172 2659.24,868.138 2658.31,858.197C2662.6,913.964 2664.46,912.924 2675.44,967.818" style="fill:transparent;stroke:white;stroke-width:18.4px;"/>
    <path d="M2706.87,920.112C2706.28,946.621 2706.34,945.919 2711.41,971.243" style="fill:transparent;stroke:white;stroke-width:18.4px;"/>
    <path d="M2718.01,881.324C2718.26,880.463 2716.68,880.463 2716.55,880.463" style="fill:transparent;stroke:white;stroke-width:18.4px;"/>
    <path d="M2778.21,907.869C2754.66,910.812 2756.37,914.508 2742.24,921.571C2761.19,927.338 2806.06,938.436 2800.48,952.402C2796.82,961.537 2762.79,979.857 2762.79,966.105" style="fill:transparent;stroke:white;stroke-width:18.4px;"/>
    <path d="M2843.3,871.899C2841.28,873.92 2830.72,942.851 2868.99,959.254" style="fill:transparent;stroke:white;stroke-width:18.4px;"/>
    <path d="M2829.38,900.831C2831.58,899.087 2831.31,899.304 2863.85,894.166" style="fill:transparent;stroke:white;stroke-width:18.4px;"/>
    <path d="M2913.71,915.575C2913.32,913.658 2908.54,889.923 2925.51,894.166C2941.31,898.115 2933.19,972.995 2946.07,955.828C2951.45,948.653 2926.53,923.378 2908.38,936.987C2895.63,946.555 2936.57,948.83 2939.22,948.977" style="fill:transparent;stroke:white;stroke-width:18.4px;"/>
    <path d="M2983.03,899.924C2978.95,922.217 2983.8,921.418 2993.99,941.055C2995.51,937.514 3018.05,884.917 3023.14,902.73C3029.47,924.858 3018.51,928.929 3035.13,945.551" style="fill:transparent;stroke:white;stroke-width:18.4px;"/>
    <path d="M3093.37,889.028C3057.53,924.864 3094.01,967.602 3134.48,938.7" style="fill:transparent;stroke:white;stroke-width:18.4px;"/>
    <path d="M3146.46,921.246C3167.69,925.258 3179.57,849.877 3151.61,889.028C3149.61,891.815 3135.45,911.65 3151.61,931.848C3165.04,948.643 3168.81,938.521 3201.28,935.274" style="fill:transparent;stroke:white;stroke-width:18.4px;"/>
    <path d="M839.286,649.231C896.111,643.549 860.989,618.809 858.127,618.401C835.551,615.175 803.2,640.335 842.712,647.519C870.396,652.552 873.824,598.165 844.425,604.698C810.942,612.139 833.759,670.7 863.266,633.816" style="fill:transparent;stroke:white;stroke-width:18.4px;"/>
    <path d="M395.268,734.339C396.264,757.227 414.058,810.61 416.217,817.089" style="fill:transparent;stroke:white;stroke-width:18.4px;"/>
    <path d="M388.903,739.783C394.101,707.577 423.725,707.285 428.207,717.745C435.54,734.854 422.201,762.3 411.079,784.545" style="fill:transparent;stroke:white;stroke-width:18.4px;"/>
    <path d="M450.955,791.727C485.736,789.922 479.249,720.623 455.613,753.714C439.812,775.835 469.736,811.74 503.572,794.822" style="fill:transparent;stroke:white;stroke-width:18.4px;"/>
    <path d="M509.825,734.793C511.147,746.322 535.131,789.893 537.673,794.51C539.474,741.96 527.431,733.771 549.818,726.309" style="fill:transparent;stroke:white;stroke-width:18.4px;"/>
    <path d="M614.906,709.18C587.114,702.233 567.989,753.318 594.352,755.427C630.844,758.346 647.768,747.541 640.598,770.842C638.31,778.28 622.682,789.375 611.48,793.109" style="fill:transparent;stroke:white;stroke-width:18.4px;"/>
    <path d="M654.612,713.925C654.314,724.149 681.357,811.708 685.132,820.514" style="fill:transparent;stroke:white;stroke-width:18.4px;"/>
    <path d="M663.249,715.513C649.433,707.65 681.932,688.853 690.27,697.191C707.154,714.074 682.589,746.827 679.993,750.288" style="fill:transparent;stroke:white;stroke-width:18.4px;"/>
    <path d="M723.937,741.825C724.015,742.036 724.363,741.56 726.24,743.437" style="fill:transparent;stroke:white;stroke-width:18.4px;"/>
    <path d="M410.042,907.863C407.974,923.609 426.562,947.566 440.197,1008.93" style="fill:transparent;stroke:white;stroke-width:18.4px;"/>
    <path d="M412.542,919.885C407.956,887.591 435.707,882.686 448.761,904.443C455.21,915.19 456.137,947.66 431.633,955.828" style="fill:transparent;stroke:white;stroke-width:18.4px;"/>
    <path d="M470.275,857.507C464.631,861.56 479.381,861.718 489.869,942.125" style="fill:transparent;stroke:white;stroke-width:18.4px;"/>
    <path d="M518.987,880.463C557.858,831.875 566.437,926.248 566.946,931.848C561.356,900.172 552.433,886.413 529.264,909.581C528.097,910.748 509.819,929.027 527.551,930.135C547.129,931.359 546.816,931.136 565.234,924.997" style="fill:transparent;stroke:white;stroke-width:18.4px;"/>
    <path d="M595.743,869.075C597.372,900.698 605.013,897.682 621.471,925.282C621.651,921.719 626.157,832.247 647.449,889.028C648.165,890.935 658.137,917.529 664.578,907.869" style="fill:transparent;stroke:white;stroke-width:18.4px;"/>
    <path d="M702.26,885.602C730.332,857.53 708.038,838.179 702.26,841.068C692.901,845.748 689.896,918.604 741.655,889.028" style="fill:transparent;stroke:white;stroke-width:18.4px;"/>
    <path d="M632.565,959.807C630.24,1062.46 686.367,1047.6 746.793,1012.35" style="fill:transparent;stroke:white;stroke-width:18.4px;"/>
    <path d="M750.531,984.304C749.907,1002.73 758.281,1024.04 758.783,1026.05C755.024,1005.95 751.264,985.842 747.505,965.736C794.75,1003.42 795.035,1003.02 798.178,1007.21C806.057,1017.72 773.453,1028.59 770.773,1029.48" style="fill:transparent;stroke:white;stroke-width:18.4px;"/>
    <path d="M1008.86,962.679C996.127,965.862 1001.4,969.997 1003.72,978.095" style="fill:transparent;stroke:white;stroke-width:18.4px;"/>
    <path d="M1079.43,1154.2C1078.58,1150.78 1097.8,1136.26 1072.23,1139.1C1067.24,1139.65 1062.38,1154.09 1073.94,1157.94C1076.12,1158.67 1088.99,1162.96 1082.51,1130.54" style="fill:transparent;stroke:white;stroke-width:18.4px;"/>
    <path d="M1058.06,1213.63C1058.26,1219.76 1061.22,1219.36 1067.09,1289.83" style="fill:transparent;stroke:white;stroke-width:18.4px;"/>
    <path d="M1052.15,1218.84C1049.52,1194.59 1078.5,1189.52 1089.36,1207.61C1100.97,1226.96 1084.5,1239.49 1072.23,1243.58" style="fill:transparent;stroke:white;stroke-width:18.4px;"/>
    <path d="M858.042,662.208C880.321,721.16 878.883,722.128 883.82,724.596" style="fill:transparent;stroke:white;stroke-width:18.4px;"/>
    <path d="M904.183,770.859C911.233,796.174 916.898,792.465 924.928,808.525" style="fill:transparent;stroke:white;stroke-width:18.4px;"/>
    <path d="M950.551,868.849C951.995,874.095 959.831,889.254 964.323,902.73" style="fill:transparent;stroke:white;stroke-width:18.4px;"/>
    <path d="M992.147,945.97C988.914,945.334 991.749,947.811 1005.43,984.946" style="fill:transparent;stroke:white;stroke-width:18.4px;"/>
    <path d="M1030.11,1034.89C1034.33,1033.77 1026.99,1040.28 1053.39,1084.29" style="fill:transparent;stroke:white;stroke-width:18.4px;"/>
    <path d="M1111.7,1207.28C1116.07,1221.91 1115.11,1221.96 1123.62,1233.31" style="fill:transparent;stroke:white;stroke-width:18.4px;"/>
    <path d="M1152.62,1289.39C1156.02,1299.76 1155.78,1299.14 1159.59,1308.67" style="fill:transparent;stroke:white;stroke-width:18.4px;"/>
    <path d="M805.082,559.228C801.811,551.442 802.601,552.162 798.178,534.472" style="fill:transparent;stroke:white;stroke-width:18.4px;"/>
    <path d="M1005.43,972.956C1033.3,967.383 1004.91,941.067 991.728,957.541C972.539,981.527 1026.01,979.882 1019.13,955.828C1014.76,940.54 973.784,960.993 1002,979.807C1014.87,988.387 1016.7,959.805 1012.28,959.254C1001.96,957.963 995.04,959.594 991.728,969.53" style="fill:transparent;stroke:white;stroke-width:18.4px;"/>
    <path d="M904.183,1159.19C904.708,1151.04 923.265,1120.44 935.205,1094.57C956.785,1047.81 949.493,1044.87 974.6,1007.21" style="fill:transparent;stroke:white;stroke-width:18.4px;"/>
    <path d="M943.733,1020.6C946.309,1021.07 946.258,1020.25 969.461,1000.36C991.145,981.776 967.63,1011.88 974.6,1039.76" style="fill:transparent;stroke:white;stroke-width:18.4px;"/>
    <path d="M701.435,1198.2C697.837,1201.63 704.185,1220.17 705.686,1228.17C718.917,1298.74 709.091,1308.69 714.25,1303.53" style="fill:transparent;stroke:white;stroke-width:18.4px;"/>
    <path d="M703.254,1213.85C699.629,1191.09 740.454,1170.76 741.655,1188.77C742.298,1198.42 745.314,1239.51 717.675,1248.72" style="fill:transparent;stroke:white;stroke-width:18.4px;"/>
    <path d="M778.489,1155.56C779.804,1177.84 781.997,1176.74 784.476,1199.05" style="fill:transparent;stroke:white;stroke-width:18.4px;"/>
    <path d="M847.85,1209.33C838.982,1216.48 830.113,1223.64 821.244,1230.79C886.109,1247.26 871.848,1265.83 868.404,1269.28C861.553,1276.13 840.147,1279.18 837.573,1279.55" style="fill:transparent;stroke:white;stroke-width:18.4px;"/>
    <path d="M407.087,1407.34C407.329,1412.02 407.736,1419.88 419.643,1464.54C431.92,1510.58 431.059,1510.78 433.346,1514.21" style="fill:transparent;stroke:white;stroke-width:18.4px;"/>
    <path d="M412.997,1429.57C412.275,1413.99 426.038,1392.41 433.346,1404.59C435.689,1408.5 449.142,1430.92 426.494,1461.11" style="fill:transparent;stroke:white;stroke-width:18.4px;"/>
    <path d="M456.865,1388.74C457.195,1393.96 457.507,1398.89 484.873,1447.82C483.096,1399.84 481.281,1400.09 484.731,1390.89C488.695,1380.31 498.351,1384.08 498.433,1384.04" style="fill:transparent;stroke:white;stroke-width:18.4px;"/>
    <path d="M546.392,1416.58C570.835,1411.69 555.474,1392.38 537.828,1389.17C522.412,1386.37 503.914,1426.94 551.531,1438.85" style="fill:transparent;stroke:white;stroke-width:18.4px;"/>
    <path d="M596.065,1377.18C609.921,1374.41 608.67,1372.38 620.928,1364.5C613.201,1396.45 632.011,1390.84 647.449,1420.01C665.819,1454.7 644.763,1458.99 632.034,1461.11C601.519,1466.2 633.315,1411.69 635.46,1408.02" style="fill:transparent;stroke:white;stroke-width:18.4px;"/>
    <path d="M676.567,1387.46C696.582,1374.12 697.949,1349.77 691.983,1348.07C683.7,1345.7 630.625,1401.16 727.952,1401.16" style="fill:transparent;stroke:white;stroke-width:18.4px;"/>
    <path d="M767.351,1338.61C751.094,1350.96 749.699,1413.45 798.178,1385.75" style="fill:transparent;stroke:white;stroke-width:18.4px;"/>
    <path d="M809.173,1311.62C804.136,1337.46 819.099,1391.01 829.009,1394.31" style="fill:transparent;stroke:white;stroke-width:18.4px;"/>
    <path d="M799.891,1339.5C820.265,1325.92 821.584,1330.15 840.999,1324.09" style="fill:transparent;stroke:white;stroke-width:18.4px;"/>
    <path d="M865.316,1333.39C860.921,1346.05 864.313,1346.07 876.969,1384.04" style="fill:transparent;stroke:white;stroke-width:18.4px;"/>
    <path d="M872.816,1306.85L870.117,1306.96" style="fill:none;stroke:white;stroke-width:18.4px;"/>
    <path d="M934.641,1356.76C935.128,1327.07 941.919,1311.97 912.938,1317.24C906.446,1318.41 878.777,1378.02 936.918,1363.48" style="fill:transparent;stroke:white;stroke-width:18.4px;"/>
    <path d="M960.78,1305.49C965.302,1342.97 980.946,1353.3 983.164,1356.63L995.435,1301.41C1010,1337.3 1004.03,1342.23 1022.56,1351.49" style="fill:transparent;stroke:white;stroke-width:18.4px;"/>
</svg>
