<?xml version="1.0" encoding="UTF-8" standalone="no"?>
<!DOCTYPE svg PUBLIC "-//W3C//DTD SVG 1.1//EN" "http://www.w3.org/Graphics/SVG/1.1/DTD/svg11.dtd">
<svg width="100%" height="100%" viewBox="0 0 2481 1749" version="1.1" xmlns="http://www.w3.org/2000/svg" xmlns:xlink="http://www.w3.org/1999/xlink" xml:space="preserve" xmlns:serif="http://www.serif.com/" style="fill-rule:evenodd;clip-rule:evenodd;stroke-linecap:round;stroke-linejoin:round;stroke-miterlimit:1.5;">
    <g transform="matrix(1.09327,0,0,1.06608,158.769,-35.0427)">
        <path d="M663.589,735.611C654.913,780.913 663.665,982.169 658.834,1122.29C658.379,1135.46 653.222,1285.02 655.2,1287" style="fill:none;stroke:white;stroke-width:9.99px;"/>
    </g>
    <g transform="matrix(1.09327,0,0,1.06608,158.769,-35.0427)">
        <path d="M666.1,729.896C893.48,726.042 893.579,717.387 985.828,729.896C1072.46,741.643 1100.73,731.712 1155.38,743.218C1180.69,748.546 1191.69,755.327 1220.78,757.751" style="fill:none;stroke:white;stroke-width:9.99px;"/>
    </g>
    <g transform="matrix(1.09327,0,0,1.06608,158.769,-35.0427)">
        <path d="M663.678,1283.37C706.41,1289.06 706.666,1272.09 795.687,1285.79C831.197,1291.25 1114.26,1301.39 1189.29,1293.05C1216.51,1290.03 1215.8,1300.87 1242.58,1297.9" style="fill:none;stroke:white;stroke-width:9.99px;"/>
    </g>
    <g transform="matrix(1.09327,0,0,1.06608,158.769,-35.0427)">
        <path d="M1227.21,760.31C1217.12,853.483 1223.14,1017 1229.26,1069C1240.45,1164.17 1237.56,1272.91 1241.37,1314.85" style="fill:none;stroke:white;stroke-width:9.99px;"/>
    </g>
    <g transform="matrix(1.09327,0,0,1.06608,158.769,-35.0427)">
        <path d="M677,718.996C685.125,713.192 772.232,635.406 799.32,618.475C844.694,590.117 978.178,483.063 1008.84,464.667" style="fill:none;stroke:white;stroke-width:9.99px;"/>
    </g>
    <g transform="matrix(1.09327,0,0,1.06608,158.769,-35.0427)">
        <path d="M1240.39,727.111C1252.54,704.717 1289.9,621.945 1307.98,586.987C1330.47,543.512 1334.32,546.424 1356.42,502.211" style="fill:none;stroke:white;stroke-width:9.99px;"/>
    </g>
    <g transform="matrix(1.09327,0,0,1.06608,158.769,-35.0427)">
        <path d="M1011.26,463.456C1113.44,465.104 1113.04,464.159 1214.73,469.511C1229.34,470.28 1229.23,465.878 1397.6,465.878" style="fill:none;stroke:white;stroke-width:9.99px;"/>
    </g>
    <g transform="matrix(1.09327,0,0,1.06608,158.769,-35.0427)">
        <path d="M1395.18,474.356C1393.82,490.68 1385.45,591.024 1389.12,679.03C1397.21,873.049 1394.29,873.216 1397.6,889.76" style="fill:none;stroke:white;stroke-width:9.99px;"/>
    </g>
    <g transform="matrix(1.09327,0,0,1.06608,158.769,-35.0427)">
        <path d="M1237.66,1296.95C1279.89,1208.62 1395.96,879.067 1409.71,857.06" style="fill:none;stroke:white;stroke-width:9.99px;"/>
    </g>
    <g transform="matrix(1.09327,0,0,1.06608,158.769,-35.0427)">
        <path d="M665.679,1269.69C666.106,1256.56 665.265,1255.49 695.166,1221.6" style="fill:none;stroke:white;stroke-width:9.99px;"/>
    </g>
    <g transform="matrix(1.09327,0,0,1.06608,158.769,-35.0427)">
        <path d="M768.536,1142.5C762.994,1145.45 782.04,1121.32 793.265,1108.97" style="fill:none;stroke:white;stroke-width:9.99px;"/>
    </g>
    <g transform="matrix(1.09327,0,0,1.06608,158.769,-35.0427)">
        <path d="M868.179,1042.59C864.919,1041.87 867.183,1040.06 893.785,1009.66" style="fill:none;stroke:white;stroke-width:9.99px;"/>
    </g>
    <g transform="matrix(1.09327,0,0,1.06608,158.769,-35.0427)">
        <path d="M964.768,938.175C966.84,933.736 969.319,935.759 1005.21,892.182" style="fill:none;stroke:white;stroke-width:9.99px;"/>
    </g>
    <g transform="matrix(1.09327,0,0,1.06608,158.769,-35.0427)">
        <path d="M1073.25,822.218C1082.66,808.019 1082.47,808.543 1092.4,795.295" style="fill:none;stroke:white;stroke-width:9.99px;"/>
    </g>
    <g transform="matrix(1.09327,0,0,1.06608,158.769,-35.0427)">
        <path d="M1010.05,471.933C1010.45,481.218 1010.86,490.504 1011.26,499.789" style="fill:none;stroke:white;stroke-width:9.99px;"/>
    </g>
    <g transform="matrix(1.09327,0,0,1.06608,158.769,-35.0427)">
        <path d="M1014.27,554.698C1004.87,558.886 1007.53,581.255 1006.42,599.098" style="fill:none;stroke:white;stroke-width:9.99px;"/>
    </g>
    <g transform="matrix(1.09327,0,0,1.06608,158.769,-35.0427)">
        <path d="M1011.21,664.08C1007.06,678.52 1008.82,678.392 1007.63,723.84" style="fill:none;stroke:white;stroke-width:9.99px;"/>
    </g>
    <g transform="matrix(1.09327,0,0,1.06608,158.769,-35.0427)">
        <path d="M1013.79,780.839C1009.56,788.812 1007.81,830.883 1007.63,835.261" style="fill:none;stroke:white;stroke-width:9.99px;"/>
    </g>
    <g transform="matrix(1.09327,0,0,1.06608,158.769,-35.0427)">
        <path d="M1037.9,900.66C1060.74,898.376 1060.19,896.839 1082.72,895.815" style="fill:none;stroke:white;stroke-width:9.99px;"/>
    </g>
    <g transform="matrix(1.09327,0,0,1.06608,158.769,-35.0427)">
        <path d="M1163.86,899.449C1191.71,895.815 1216.22,893.774 1220.78,893.393" style="fill:none;stroke:white;stroke-width:9.99px;"/>
    </g>
    <g transform="matrix(1.09327,0,0,1.06608,158.769,-35.0427)">
        <path d="M1315.77,896.155C1313.31,900.249 1318.11,893.657 1374.59,886.127" style="fill:none;stroke:white;stroke-width:9.99px;"/>
    </g>
    <g transform="matrix(1.09327,0,0,1.06608,158.769,-35.0427)">
        <path d="M669.536,368.333C654.896,605.309 678.527,605.631 667.311,717.785" style="fill:none;stroke:white;stroke-width:9.99px;"/>
    </g>
    <g transform="matrix(1.09327,0,0,1.06608,158.769,-35.0427)">
        <path d="M647.934,431.967C649.568,425.433 657.304,429.283 684.355,356.053C683.675,365.718 671.089,395.069 690.322,448.923" style="fill:none;stroke:white;stroke-width:9.99px;"/>
    </g>
    <g transform="matrix(1.09327,0,0,1.06608,158.769,-35.0427)">
        <path d="M1243.79,1302.74C1244.36,1302.46 1274.6,1297.33 1373.38,1291.84C1501.85,1284.7 1501.45,1284.58 1630.13,1284.58" style="fill:none;stroke:white;stroke-width:9.99px;"/>
    </g>
    <g transform="matrix(1.09327,0,0,1.06608,158.769,-35.0427)">
        <path d="M1581.68,1248.24C1591.47,1255.58 1692.54,1287.43 1607.12,1318.49" style="fill:none;stroke:white;stroke-width:9.99px;"/>
    </g>
    <g transform="matrix(1.09327,0,0,1.06608,158.769,-35.0427)">
        <path d="M1156.98,696.959C1164.44,680.052 1165.36,680.889 1177.18,666.919" style="fill:none;stroke:white;stroke-width:9.99px;"/>
    </g>
    <g transform="matrix(1.09327,0,0,1.06608,158.769,-35.0427)">
        <path d="M1227.54,603.134C1228.51,597.735 1229.04,598.321 1237.74,580.932" style="fill:none;stroke:white;stroke-width:9.99px;"/>
    </g>
    <g transform="matrix(1.09327,0,0,1.06608,158.769,-35.0427)">
        <path d="M1224.16,543.311C1252.84,538.761 1257.04,531.376 1266.9,527.112C1266.46,540.207 1266.03,553.303 1265.59,566.399" style="fill:none;stroke:white;stroke-width:9.99px;"/>
    </g>
    <g transform="matrix(1.09327,0,0,1.06608,158.769,-35.0427)">
        <path d="M1624.5,1366.72C1615.58,1381.05 1659.89,1417.97 1664.04,1421.43" style="fill:none;stroke:white;stroke-width:9.99px;"/>
    </g>
    <g transform="matrix(1.09327,0,0,1.06608,158.769,-35.0427)">
        <path d="M1625.29,1419.01C1644,1389.59 1644.39,1390.4 1665.25,1362.09" style="fill:none;stroke:white;stroke-width:9.99px;"/>
    </g>
    <g transform="matrix(1.09327,0,0,1.06608,158.769,-35.0427)">
        <path d="M526.179,343.313C509.054,337.775 554.648,299.288 552.258,339.924C551.567,351.672 513.295,432.287 566.791,384.735" style="fill:none;stroke:white;stroke-width:9.99px;"/>
    </g>
    <g transform="matrix(1.09327,0,0,1.06608,158.769,-35.0427)">
        <path d="M521.98,370.202C545.321,363.533 544.76,363.617 569.213,359.302" style="fill:none;stroke:white;stroke-width:9.99px;"/>
    </g>
    <g transform="matrix(1.09327,0,0,1.06608,158.769,-35.0427)">
        <path d="M1283.3,383.248C1282.49,383.544 1285.14,406.995 1291.02,408.957C1291.88,409.242 1292.59,409.882 1293.44,410.168C1305.11,414.054 1301.05,406.005 1310.4,372.624C1316.98,392.353 1332.43,438.388 1305.56,442.867C1301.06,443.616 1284.65,427.543 1340.68,398.057" style="fill:none;stroke:white;stroke-width:9.99px;"/>
    </g>
    <g transform="matrix(1.09327,0,0,1.06608,158.769,-35.0427)">
        <path d="M957.214,259.272C951.429,257.567 958.059,262.808 955.551,334.64C943.344,297.313 943.737,297.669 928.618,261.666C932.787,260.841 967.662,253.937 980.984,252.726" style="fill:none;stroke:white;stroke-width:9.99px;"/>
    </g>
    <g transform="matrix(1.09327,0,0,1.06608,158.769,-35.0427)">
        <path d="M987.039,314.492C1024.56,308.239 1000.9,273.526 982.195,284.214C967.052,292.867 970.282,322.884 1012.47,304.803" style="fill:none;stroke:white;stroke-width:9.99px;"/>
    </g>
    <g transform="matrix(1.09327,0,0,1.06608,158.769,-35.0427)">
        <path d="M1028.73,274.668C1021.86,278.922 1025.2,283.262 1034.43,343.507C1036.06,333.415 1042.27,279.684 1058.49,286.636C1066.75,290.175 1059.36,296.675 1076.66,309.647" style="fill:none;stroke:white;stroke-width:9.99px;"/>
    </g>
    <g transform="matrix(1.09327,0,0,1.06608,158.769,-35.0427)">
        <path d="M866.25,1343.14C855.778,1340.16 872.595,1349.76 875.588,1450.09C875.72,1446.67 877.149,1409.5 884.097,1408.11C895.343,1405.86 909.828,1435.44 904.685,1444.44C899.416,1453.66 873.127,1467.94 878.041,1433.54" style="fill:none;stroke:white;stroke-width:9.99px;"/>
    </g>
    <g transform="matrix(1.09327,0,0,1.06608,158.769,-35.0427)">
        <path d="M937.446,1441.14C945.174,1422.62 935.289,1398.4 927.696,1404.47C915.956,1413.87 912.102,1476.04 947.073,1432.33" style="fill:none;stroke:white;stroke-width:9.99px;"/>
    </g>
    <g transform="matrix(1.09327,0,0,1.06608,158.769,-35.0427)">
        <path d="M970.554,1362.07C960.807,1376.21 966.117,1377.04 968.873,1393.57C974.189,1425.47 971.295,1439.67 971.295,1440.81C967.514,1428.71 940.934,1364.76 961.606,1369.35C978.831,1373.18 977.904,1367.55 994.306,1362.09C993.69,1379.95 990.78,1379.61 993.095,1397.21C996.398,1422.31 996.67,1421.64 1000.36,1446.86C995.329,1405.35 994,1406.17 985.558,1365.58C1021.78,1370.03 1021.14,1366.04 1023.37,1365.72" style="fill:none;stroke:white;stroke-width:9.99px;"/>
    </g>
    <g transform="matrix(1.09327,0,0,1.06608,158.769,-35.0427)">
        <path d="M1039.12,1440.81C1055.41,1429.94 1044.57,1397.38 1028.22,1402.05C1015.33,1405.73 1012.12,1463.06 1050.02,1429.91" style="fill:none;stroke:white;stroke-width:9.99px;"/>
    </g>
    <g transform="matrix(1.09327,0,0,1.06608,158.769,-35.0427)">
        <path d="M1081.61,1404.25C1078.85,1404.49 1072.5,1406.48 1087.74,1438.29C1091.41,1422.84 1095.07,1407.39 1098.73,1391.94C1105.77,1431.37 1100.5,1435.81 1112.99,1440.81C1121.98,1444.4 1127.09,1415.43 1127.53,1412.95C1135.52,1429.82 1131.8,1433.75 1145.69,1438.38" style="fill:none;stroke:white;stroke-width:9.99px;"/>
    </g>
    <g transform="matrix(1.09327,0,0,1.06608,158.769,-35.0427)">
        <path d="M1480.98,920.694C1464.15,906.659 1491.76,831.053 1500.54,867.96C1504,882.48 1501.38,916.28 1512.65,920.037C1518.44,921.966 1535.38,876.781 1536.88,872.805C1542.02,892.52 1543.64,913.396 1558.67,916.404" style="fill:none;stroke:white;stroke-width:9.99px;"/>
    </g>
    <g transform="matrix(1.09327,0,0,1.06608,158.769,-35.0427)">
        <path d="M1558.93,827.03C1556.31,827.974 1556.26,828.003 1557.46,830.416" style="fill:none;stroke:white;stroke-width:9.99px;"/>
    </g>
    <g transform="matrix(1.09327,0,0,1.06608,158.769,-35.0427)">
        <path d="M1587.54,906.74C1588.58,900.435 1604.62,877.031 1586.53,874.016C1571.13,871.45 1564.52,904.406 1576.84,907.926C1595.74,913.325 1594.01,904.777 1599.69,885.614C1602.39,893.35 1627.77,965.999 1605.91,987.858C1600.95,992.81 1569.4,979.334 1627.71,903.082" style="fill:none;stroke:white;stroke-width:9.99px;"/>
    </g>
    <g transform="matrix(1.09327,0,0,1.06608,158.769,-35.0427)">
        <path d="M1624.5,819.812C1624.48,820.738 1624.02,904.99 1634.97,911.56C1641.06,915.212 1657.03,890.827 1658.46,888.63C1662.06,900.134 1657.21,915.366 1679.78,910.348" style="fill:none;stroke:white;stroke-width:9.99px;"/>
    </g>
    <g transform="matrix(1.09327,0,0,1.06608,158.769,-35.0427)">
        <path d="M1700.52,813.718C1692.28,816.779 1690.62,895.748 1705.22,910.348" style="fill:none;stroke:white;stroke-width:9.99px;"/>
    </g>
    <g transform="matrix(1.09327,0,0,1.06608,158.769,-35.0427)">
        <path d="M1675.61,848.681C1676.9,851.334 1677.94,853.467 1712.48,847.372" style="fill:none;stroke:white;stroke-width:9.99px;"/>
    </g>
    <g transform="matrix(1.09327,0,0,1.06608,158.769,-35.0427)">
        <path d="M327.536,971.696C323.483,965.759 344.558,970.89 358.483,887.338C358.661,886.269 364.907,816.988 352.428,875.227C337.514,944.822 362.905,1011.71 392.394,952.737C401.618,934.288 396.321,907.639 388.76,921.248C371.804,951.77 414.725,1004.3 433.571,936.992C449.896,878.689 433.172,834.819 428.726,870.382C420.612,935.297 475.872,1031.92 443.259,1025.4C437.243,1024.2 427.473,1018.68 463.848,951.526" style="fill:none;stroke:white;stroke-width:9.99px;"/>
    </g>
    <g transform="matrix(1.09327,0,0,1.06608,158.769,-35.0427)">
        <path d="M480.803,861.905C478.598,870.725 475.66,871.376 496.439,972.253C481.553,930.024 482.116,930.452 469.198,887.543C487.572,886.591 487.193,887.526 505.025,883.704" style="fill:none;stroke:white;stroke-width:9.99px;"/>
    </g>
    <g transform="matrix(1.09327,0,0,1.06608,158.769,-35.0427)">
        <path d="M909.321,1079.47C911.371,1077.68 921.166,1069.12 927.696,1050.84C949.497,989.793 940.957,988.471 941.018,987.858C896.039,1081.91 958.691,1100.27 939.807,1138.03C938.7,1140.25 922.064,1149.37 924.063,1111.39C925.321,1087.48 955.548,1055.06 966.265,1040.97C968.705,1075.13 963.424,1080.41 974.928,1082.32C988.136,1084.53 983.917,1077.1 990.021,1062.85C999.855,1078.61 1006.83,1087.34 1013.68,1070.21C1021.14,1051.57 997.191,1029.15 991.884,1055.68C985.211,1089.04 1005.56,1079 1010.05,1079.9" style="fill:none;stroke:white;stroke-width:9.99px;"/>
    </g>
    <g transform="matrix(1.09327,0,0,1.06608,158.769,-35.0427)">
        <path d="M1030.34,1037.93C1022.14,1048.81 1032.38,1069.8 1035.37,1079.1C1039.69,1067.39 1044.01,1055.68 1048.32,1043.97C1051.74,1066.75 1046.81,1078.86 1069.39,1073.85" style="fill:none;stroke:white;stroke-width:9.99px;"/>
    </g>
    <g transform="matrix(1.09327,0,0,1.06608,158.769,-35.0427)">
        <path d="M1084.5,985.809C1078.87,1005.93 1084.11,1072.69 1094.83,1076.27" style="fill:none;stroke:white;stroke-width:9.99px;"/>
    </g>
    <g transform="matrix(1.09327,0,0,1.06608,158.769,-35.0427)">
        <path d="M1069.39,1018.14C1077.87,1015.71 1095,1013.57 1097.25,1013.29" style="fill:none;stroke:white;stroke-width:9.99px;"/>
    </g>
    <g transform="matrix(1.09327,0,0,1.06608,158.769,-35.0427)">
        <path d="M1111.02,583.407C1106.99,586.736 1107.18,587.719 1109.36,648.753C1116.02,626.546 1110.83,617.329 1125.1,620.898C1130.83,622.328 1132.82,648.104 1129.95,654.808C1124.61,667.263 1121.6,663.263 1108.15,665.708" style="fill:none;stroke:white;stroke-width:9.99px;"/>
    </g>
    <g transform="matrix(1.09327,0,0,1.06608,158.769,-35.0427)">
        <path d="M1161.44,649.964C1177.99,608.578 1153.05,614.869 1151.75,617.264C1147.57,624.924 1141.74,656.37 1154.17,658.441C1171.9,661.397 1166.19,651.667 1172.13,634.926C1177.76,649 1174.38,653.535 1189.29,656.019" style="fill:none;stroke:white;stroke-width:9.99px;"/>
    </g>
    <g transform="matrix(1.09327,0,0,1.06608,158.769,-35.0427)">
        <path d="M1207.46,618.475C1189.82,643.176 1194.3,674.797 1228.05,651.175" style="fill:none;stroke:white;stroke-width:9.99px;"/>
    </g>
    <g transform="matrix(1.09327,0,0,1.06608,158.769,-35.0427)">
        <path d="M1245.54,594.473C1240.05,601.401 1242.74,602.332 1245.41,656.305C1250.25,646.991 1254.7,637.479 1259.54,628.164C1260.49,626.318 1260.43,626.46 1271.65,605.153C1269.52,607.806 1246.6,628.294 1275.28,637.853" style="fill:none;stroke:white;stroke-width:9.99px;"/>
    </g>
</svg>
