<?xml version="1.0" encoding="UTF-8" standalone="no"?>
<!DOCTYPE svg PUBLIC "-//W3C//DTD SVG 1.1//EN" "http://www.w3.org/Graphics/SVG/1.1/DTD/svg11.dtd">
<svg width="100%" height="100%" viewBox="0 0 2481 1749" version="1.1" xmlns="http://www.w3.org/2000/svg" xmlns:xlink="http://www.w3.org/1999/xlink" xml:space="preserve" xmlns:serif="http://www.serif.com/" style="fill-rule:evenodd;clip-rule:evenodd;stroke-linecap:round;stroke-linejoin:round;stroke-miterlimit:1.5;">
    <g transform="matrix(2.18282,0,0,2.16154,-889.697,-451.966)">
        <path d="M766.701,403.736C771.624,497.278 769.161,663.78 769.424,680.638C770.723,763.77 773.235,763.327 774.871,846.779" style="fill:none;stroke:white;stroke-width:2.55px;"/>
    </g>
    <g transform="matrix(2.18282,0,0,2.16154,-889.697,-451.966)">
        <path d="M751.267,430.065C767.212,417.308 767.101,400.68 767.608,397.381C776.313,413.339 775.159,413.677 787.582,427.341" style="fill:none;stroke:white;stroke-width:2.55px;"/>
    </g>
    <g transform="matrix(2.18282,0,0,2.16154,-889.697,-451.966)">
        <path d="M685.44,786.468C689.081,785.094 1004.74,781.617 1114.42,785.044" style="fill:none;stroke:white;stroke-width:2.55px;"/>
    </g>
    <g transform="matrix(2.18282,0,0,2.16154,-889.697,-451.966)">
        <path d="M1116.82,782.251C1155.68,780.487 1159.14,781.87 1162.53,783.228" style="fill:none;stroke:white;stroke-width:2.55px;"/>
    </g>
    <g transform="matrix(2.18282,0,0,2.16154,-889.697,-451.966)">
        <path d="M1152.53,769.842C1142.81,767.31 1154.33,771.154 1163.44,775.057C1179.3,781.854 1174.16,791.237 1157.09,795.031" style="fill:none;stroke:white;stroke-width:2.55px;"/>
    </g>
    <g transform="matrix(2.18282,0,0,2.16154,-889.697,-451.966)">
        <path d="M731.849,839.357C727.29,840.666 737.422,837.757 766.701,791.399" style="fill:none;stroke:white;stroke-width:2.55px;"/>
    </g>
    <g transform="matrix(2.18282,0,0,2.16154,-889.697,-451.966)">
        <path d="M896.073,690.171C905.876,691.571 905.521,690.261 916.954,688.355" style="fill:none;stroke:white;stroke-width:2.55px;"/>
    </g>
    <g transform="matrix(2.18282,0,0,2.16154,-889.697,-451.966)">
        <path d="M954.147,692.042C971.383,693.387 970.964,692.556 987.768,688.355" style="fill:none;stroke:white;stroke-width:2.55px;"/>
    </g>
    <g transform="matrix(2.18282,0,0,2.16154,-889.697,-451.966)">
        <path d="M1028.93,693.247C1042.18,693.03 1041.65,693.344 1054.95,693.803" style="fill:none;stroke:white;stroke-width:2.55px;"/>
    </g>
    <g transform="matrix(2.18282,0,0,2.16154,-889.697,-451.966)">
        <path d="M781.378,775.894C779.912,774.967 783.871,776.436 797.114,760.985" style="fill:none;stroke:white;stroke-width:2.55px;"/>
    </g>
    <g transform="matrix(2.18282,0,0,2.16154,-889.697,-451.966)">
        <path d="M822.737,740.112C822.617,738.493 822.436,736.046 833.429,722.855" style="fill:none;stroke:white;stroke-width:2.55px;"/>
    </g>
    <g transform="matrix(2.18282,0,0,2.16154,-889.697,-451.966)">
        <path d="M856.04,702.885C856.841,701.737 860.147,696.997 867.021,689.263" style="fill:none;stroke:white;stroke-width:2.55px;"/>
    </g>
    <g transform="matrix(2.18282,0,0,2.16154,-889.697,-451.966)">
        <path d="M902.809,661.923C902.044,660.309 917.391,641.893 918.77,640.238" style="fill:none;stroke:white;stroke-width:2.55px;"/>
    </g>
    <g transform="matrix(2.18282,0,0,2.16154,-889.697,-451.966)">
        <path d="M950.54,613.732C955.802,599.062 967.62,592.938 969.611,591.213" style="fill:none;stroke:white;stroke-width:2.55px;"/>
    </g>
    <g transform="matrix(2.18282,0,0,2.16154,-889.697,-451.966)">
        <path d="M985.166,570.842C985.047,570.341 995.369,557.473 998.663,553.082" style="fill:none;stroke:white;stroke-width:2.55px;"/>
    </g>
    <g transform="matrix(2.18282,0,0,2.16154,-889.697,-451.966)">
        <path d="M1090.97,455.426C1088.57,453.874 1110.3,434.858 1112.15,433.242C1135.4,412.897 1134.36,412.391 1154.82,389.664" style="fill:none;stroke:white;stroke-width:2.55px;"/>
    </g>
    <g transform="matrix(2.18282,0,0,2.16154,-889.697,-451.966)">
        <path d="M1133.65,397.356C1136.89,396.696 1136.69,396.39 1171.2,380.128C1162.07,395.77 1162.23,395.561 1160.26,413.269" style="fill:none;stroke:white;stroke-width:2.55px;"/>
    </g>
    <g transform="matrix(2.18282,0,0,2.16154,-889.697,-451.966)">
        <path d="M1197.49,376.046C1200.66,388.737 1202.68,396.275 1212.01,386.941C1215.99,382.969 1218.14,363.604 1218.37,361.52C1223.15,416.53 1232.73,435.017 1218.37,431.427C1213.22,430.138 1220.46,409.614 1221.09,407.822C1227.85,388.669 1233.82,390.86 1238.34,387.849" style="fill:none;stroke:white;stroke-width:2.55px;"/>
    </g>
    <g transform="matrix(2.18282,0,0,2.16154,-889.697,-451.966)">
        <path d="M675.696,374.224C674.776,363.686 690.76,355.782 691.801,365.152C693.193,377.677 683.034,385.98 680.906,398.743C679.495,407.21 690.119,401.316 709.958,392.388" style="fill:none;stroke:white;stroke-width:2.55px;"/>
    </g>
    <g transform="matrix(2.18282,0,0,2.16154,-889.697,-451.966)">
        <path d="M674.374,386.272C672.432,385.637 673.511,382.235 698.156,376.954" style="fill:none;stroke:white;stroke-width:2.55px;"/>
    </g>
    <g transform="matrix(2.18282,0,0,2.16154,-889.697,-451.966)">
        <path d="M914.591,404.343C914.537,406.506 913.746,437.987 924.217,429.611C930.12,424.888 937.773,402.344 934.204,400.559C930.491,398.703 928.879,415.33 937.835,433.242" style="fill:none;stroke:white;stroke-width:2.55px;"/>
    </g>
    <g transform="matrix(2.18282,0,0,2.16154,-889.697,-451.966)">
        <path d="M910.624,861.433C915.477,862.318 921.437,837.255 908.783,839.063C898.316,840.558 897.582,858.729 903.336,864.483C916.766,877.913 922.014,807.064 922.401,801.84C920.97,816.869 916.971,817.334 929.664,861.759" style="fill:none;stroke:white;stroke-width:2.55px;"/>
    </g>
    <g transform="matrix(2.18282,0,0,2.16154,-889.697,-451.966)">
        <path d="M683.752,686.018C682.221,692.571 718.389,616.957 697.248,627.528C685.649,633.327 685.105,703.505 719.037,686.54" style="fill:none;stroke:white;stroke-width:2.55px;"/>
    </g>
    <g transform="matrix(2.18282,0,0,2.16154,-889.697,-451.966)">
        <path d="M1099.44,606.647C1103.48,626.88 1103.34,626.519 1108.07,646.905C1109.53,638.73 1109.95,591.255 1138.48,607.554" style="fill:none;stroke:white;stroke-width:2.55px;"/>
    </g>
    <g transform="matrix(2.18282,0,0,2.16154,-889.697,-451.966)">
        <path d="M823.939,675.898C819.673,673.72 836.577,671.829 841.6,626.62C842.195,621.269 830.487,614.505 828.89,632.067C828.413,637.319 855.294,741.201 838.877,700.158C830.496,679.207 850.791,663.985 853.403,662.027" style="fill:none;stroke:white;stroke-width:2.55px;"/>
    </g>
    <g transform="matrix(2.18282,0,0,2.16154,-889.697,-451.966)">
        <path d="M949.698,490.484C950.61,513.881 950.649,513.471 952.626,537.076C958.118,516.304 954.923,513.176 962.348,511.32C971.421,509.051 973.826,530.742 973.242,532.201C972.442,534.201 952.108,541.429 949.637,534.016" style="fill:none;stroke:white;stroke-width:2.55px;"/>
    </g>
    <g transform="matrix(2.18282,0,0,2.16154,-889.697,-451.966)">
        <path d="M1211.92,793.845C1218.18,811.105 1222.65,808.076 1231.99,823.629" style="fill:none;stroke:white;stroke-width:2.55px;"/>
    </g>
    <g transform="matrix(2.18282,0,0,2.16154,-889.697,-451.966)">
        <path d="M1219.73,820.591C1217.41,822.189 1227.05,808.212 1230.17,802.748" style="fill:none;stroke:white;stroke-width:2.55px;"/>
    </g>
    <g transform="matrix(2.18282,0,0,2.16154,-889.697,-451.966)">
        <path d="M774.891,555.393C905.555,561.78 990.089,546.752 1003.66,553.536" style="fill:none;stroke:white;stroke-width:2.55px;"/>
    </g>
    <g transform="matrix(2.18282,0,0,2.16154,-889.697,-451.966)">
        <path d="M996.954,554.429C998.112,560.535 991.854,587.663 991.854,782.32" style="fill:none;stroke:white;stroke-width:2.55px;"/>
    </g>
    <g transform="matrix(2.18282,0,0,2.16154,-889.697,-451.966)">
        <path d="M774.77,551.417C775.035,549.834 776.845,552.13 791.213,539.918C827.407,509.153 823.501,505.293 862.027,477.274" style="fill:none;stroke:white;stroke-width:2.55px;"/>
    </g>
    <g transform="matrix(2.18282,0,0,2.16154,-889.697,-451.966)">
        <path d="M866.746,471.541C973.488,478.538 972.998,468.196 1079.92,468.196" style="fill:none;stroke:white;stroke-width:2.55px;"/>
    </g>
    <g transform="matrix(2.18282,0,0,2.16154,-889.697,-451.966)">
        <path d="M1004.17,551.779C1006.7,545.61 1030.09,522.608 1042.69,505.418C1055.7,487.677 1056.79,488.992 1074.47,476.366" style="fill:none;stroke:white;stroke-width:2.55px;"/>
    </g>
    <g transform="matrix(2.18282,0,0,2.16154,-889.697,-451.966)">
        <path d="M1076.78,469.883C1074.35,469.047 1076.06,470.463 1076.74,473.189C1077.41,475.869 1076.89,475.626 1077.65,478.636" style="fill:none;stroke:white;stroke-width:2.55px;"/>
    </g>
    <g transform="matrix(2.18282,0,0,2.16154,-889.697,-451.966)">
        <path d="M994.904,779.026C988.542,779.974 1054.07,706.253 1059.49,700.158" style="fill:none;stroke:white;stroke-width:2.55px;"/>
    </g>
    <g transform="matrix(2.18282,0,0,2.16154,-889.697,-451.966)">
        <path d="M1074.38,468.919C1073.68,550.403 1065.92,657.099 1073.11,707.421" style="fill:none;stroke:white;stroke-width:2.55px;"/>
    </g>
    <g transform="matrix(2.18282,0,0,2.16154,-889.697,-451.966)">
        <path d="M871.56,687.447C870.503,659.963 870.735,660.381 869.744,647.501" style="fill:none;stroke:white;stroke-width:2.55px;"/>
    </g>
    <g transform="matrix(2.18282,0,0,2.16154,-889.697,-451.966)">
        <path d="M871.069,603.371C870.395,604.264 869.954,603.366 870.652,589.397C870.692,588.596 870.72,588.657 871.56,579.41" style="fill:none;stroke:white;stroke-width:2.55px;"/>
    </g>
    <g transform="matrix(2.18282,0,0,2.16154,-889.697,-451.966)">
        <path d="M870.652,544.003C870.87,541.83 870.648,542.248 872.468,516.767" style="fill:none;stroke:white;stroke-width:2.55px;"/>
    </g>
    <g transform="matrix(2.18282,0,0,2.16154,-889.697,-451.966)">
        <path d="M873.714,489.521C872.564,476.123 872.623,476.489 874.284,463.202" style="fill:none;stroke:white;stroke-width:2.55px;"/>
    </g>
    <g transform="matrix(2.18282,0,0,2.16154,-889.697,-451.966)">
        <path d="M874.284,688.355C876.402,673.526 868.192,682.293 867.929,682.908C864.329,691.308 866.76,695.359 875.192,691.987" style="fill:none;stroke:white;stroke-width:2.55px;"/>
    </g>
</svg>
