<?xml version="1.0" encoding="UTF-8" standalone="no"?>
<!DOCTYPE svg PUBLIC "-//W3C//DTD SVG 1.1//EN" "http://www.w3.org/Graphics/SVG/1.1/DTD/svg11.dtd">
<svg width="100%" height="100%" viewBox="0 0 2481 1749" version="1.1" xmlns="http://www.w3.org/2000/svg" xmlns:xlink="http://www.w3.org/1999/xlink" xml:space="preserve" xmlns:serif="http://www.serif.com/" style="fill-rule:evenodd;clip-rule:evenodd;stroke-linecap:round;stroke-linejoin:round;stroke-miterlimit:1.5;">
    <path d="M597.464,1429.51C766.112,1428.69 765.367,1423.97 901.294,1418.3C1021.24,1413.3 1020.93,1417 1140.8,1425.56" style="fill:none;stroke:white;stroke-width:5.54px;"/>
    <path d="M877.101,1518.7C894.563,1489.6 870.676,1451.72 850.489,1492.09C829.835,1533.4 877.564,1534.25 889.197,1499.35C889.535,1498.33 893.385,1486.79 890.407,1486.04C883.309,1484.27 880.912,1534.83 923.067,1527.17" style="fill:none;stroke:white;stroke-width:5.54px;"/>
    <path d="M571.994,632.694L572.276,633.256L577.719,627.813C580.512,625.393 581.237,624.764 609.774,594.548" style="fill:none;stroke:white;stroke-width:5.54px;"/>
    <path d="M656.413,563.189C659.216,559.16 660.815,556.861 702.915,523.181" style="fill:none;stroke:white;stroke-width:5.54px;"/>
    <path d="M759.415,489.35C760.022,487.199 792.628,467.001 800.895,461.49" style="fill:none;stroke:white;stroke-width:5.54px;"/>
    <path d="M853.126,417.758C852.523,414.912 891.737,378.834 895.245,375.607" style="fill:none;stroke:white;stroke-width:5.54px;"/>
    <path d="M945.074,341.351C949.481,340.282 948.971,340.406 990.806,307.868" style="fill:none;stroke:white;stroke-width:5.54px;"/>
    <path d="M1041.67,269.117C1057.39,253.181 1057.55,254.189 1073.06,237.71" style="fill:none;stroke:white;stroke-width:5.54px;"/>
    <path d="M1115.36,213.256C1112.48,213.898 1114.23,210.65 1138.38,184.486" style="fill:none;stroke:white;stroke-width:5.54px;"/>
    <path d="M1168.06,175.855C1174.85,192.441 1248.23,229.13 1255.71,232.871" style="fill:none;stroke:white;stroke-width:5.54px;"/>
    <path d="M1316.19,277.627C1335.69,293.875 1337.21,290.738 1359.74,303.029" style="fill:none;stroke:white;stroke-width:5.54px;"/>
    <path d="M1425.8,351.143C1428.08,364.235 1457.87,369.651 1477.07,381.655" style="fill:none;stroke:white;stroke-width:5.54px;"/>
    <path d="M1551.23,413.745C1551.9,417.098 1552,417.829 1601.67,445.765" style="fill:none;stroke:white;stroke-width:5.54px;"/>
    <path d="M1686.27,505.883C1687.96,509.566 1688.63,511.021 1729.89,531.648" style="fill:none;stroke:white;stroke-width:5.54px;"/>
    <path d="M1793.6,574.425C1796.1,586.842 1811.4,570.399 1846.01,612.693" style="fill:none;stroke:white;stroke-width:5.54px;"/>
    <path d="M1882.3,629.628C1884.33,631.255 1889.21,635.157 1910.12,646.562" style="fill:none;stroke:white;stroke-width:5.54px;"/>
    <path d="M1146.85,190.534C1176.03,161.35 1150.43,159.819 1148.06,160.294C1132.29,163.447 1133.5,209.93 1157.73,185.696C1170.1,173.327 1152.29,164.94 1145.64,176.019C1134.28,194.952 1157.96,181.419 1158.94,180.857" style="fill:none;stroke:white;stroke-width:5.54px;"/>
    <path d="M1252.16,105.548C1246.49,106.931 1252.96,109.534 1255.71,178.438" style="fill:none;stroke:white;stroke-width:5.54px;"/>
    <path d="M1242.41,101.022C1265.23,99.679 1264.84,101.58 1287.16,97.393" style="fill:none;stroke:white;stroke-width:5.54px;"/>
    <path d="M1238.78,143.359C1242.87,143.018 1242.24,141.361 1289.58,136.101" style="fill:none;stroke:white;stroke-width:5.54px;"/>
    <path d="M1335.55,160.294C1356.83,133.687 1318.09,122.906 1308.94,145.778C1299.45,169.483 1338.16,212.949 1358.53,151.826" style="fill:none;stroke:white;stroke-width:5.54px;"/>
    <path d="M1419.01,131.263C1392.42,126.83 1389.19,160.983 1394.82,167.551C1410.16,185.454 1432.22,168.303 1434.74,166.342" style="fill:none;stroke:white;stroke-width:5.54px;"/>
    <path d="M1462.56,133.682C1462.26,137.001 1459.63,165.912 1480.7,171.18C1493.45,174.366 1500.63,133.676 1501.27,130.053C1500.45,149.679 1493.37,178.065 1519.41,174.809" style="fill:none;stroke:white;stroke-width:5.54px;"/>
    <path d="M1570.22,122.795C1538.91,129.752 1545.79,139.194 1538.77,149.407C1549.67,149.811 1586.44,147.353 1588.36,162.713C1589.17,169.164 1573.1,185.235 1571.42,186.905" style="fill:none;stroke:white;stroke-width:5.54px;"/>
    <path d="M1860.56,735.587C1862.73,776.546 1861.74,776.028 1865.36,805.023" style="fill:none;stroke:white;stroke-width:5.54px;"/>
    <path d="M1857.99,732.858C1875.62,713.821 1890.98,729.285 1891.98,737.284C1894.42,756.836 1869.34,761.015 1866.57,761.477" style="fill:none;stroke:white;stroke-width:5.54px;"/>
    <path d="M1917.74,766.086C1916.43,766.277 1917.09,766.023 1916.17,765.105" style="fill:none;stroke:white;stroke-width:5.54px;"/>
    <path d="M1949.14,724.832C1948.98,731.352 1950.26,731.212 1953.67,806.233" style="fill:none;stroke:white;stroke-width:5.54px;"/>
    <path d="M1957.3,722.769C1986.69,716.889 2000.27,741.43 1969.39,753.009C1969.39,753.009 1952.41,759.541 1953.67,759.057" style="fill:none;stroke:white;stroke-width:5.54px;"/>
    <path d="M2005.68,691.318C2013.04,742.828 2009.3,761.544 2008.1,767.525" style="fill:none;stroke:white;stroke-width:5.54px;"/>
    <path d="M2037.4,732.055C2036.59,729.615 2032.78,725.041 2044.39,721.559C2059.1,717.145 2061.03,752.071 2062.53,766.315C2060.61,751.905 2064.3,747.622 2050.44,744.542C2044.66,743.258 2045.58,745.927 2032.15,761.144C2048.25,762.218 2047.68,763.188 2063.74,760.267" style="fill:none;stroke:white;stroke-width:5.54px;"/>
    <path d="M2085.51,726.397C2089.34,749.366 2089.76,748.942 2092.3,772.098C2100.93,757.671 2109.55,743.244 2118.18,728.817C2121.57,771.305 2123.4,778.282 2137.53,773.573" style="fill:none;stroke:white;stroke-width:5.54px;"/>
    <path d="M2154.5,759.504C2168.74,764.067 2196.47,711.379 2170.19,726.397C2158.87,732.865 2157.17,754.327 2161.72,761.477C2170.51,775.292 2208.28,777.008 2212.53,777.202" style="fill:none;stroke:white;stroke-width:5.54px;"/>
    <path d="M1765.72,746.181C1758.55,745.211 1743.9,757.493 1740.77,759.057C1690.05,784.418 1665.92,695.981 1665.78,696.157" style="fill:none;stroke:white;stroke-width:5.54px;"/>
    <path d="M1637.95,725.188C1652.72,680.885 1659.51,682.63 1662.15,685.27C1678.24,701.358 1677.34,704.241 1699.64,705.834" style="fill:none;stroke:white;stroke-width:5.54px;"/>
    <path d="M598.265,1424.06C592.633,1415.28 612.145,1420.36 655.74,1307.02C666.792,1278.28 718.453,1196.5 753.719,1097.75C767.671,1058.69 813.835,1016.17 863.795,841.312C875.203,801.384 980.777,582.297 1012.58,486.892C1034.82,420.181 1043.74,424.383 1067.01,357.462C1071.92,343.355 1074.48,344.657 1145.64,188.115" style="fill:none;stroke:white;stroke-width:5.54px;"/>
    <path d="M1156.68,200.896C1158.28,205.377 1149.27,634.808 1149.27,750.59C1149.27,804.082 1125.94,972.507 1139.59,1190.89C1150.76,1369.66 1148.92,1410.13 1148.06,1429.19" style="fill:none;stroke:white;stroke-width:5.54px;"/>
    <path d="M1166.2,1453.38C1208.03,1418.52 1132.93,1398.36 1128.7,1427.98C1125.8,1448.33 1179.34,1439.9 1162.57,1423.14C1149.39,1409.96 1117.96,1425.3 1139.59,1437.66C1157.8,1448.06 1168.79,1424.87 1148.06,1420.72C1138.79,1418.87 1135.08,1430.73 1138.38,1434.03C1146.74,1442.38 1156.85,1424.68 1157.73,1423.14" style="fill:none;stroke:white;stroke-width:5.54px;"/>
    <path d="M602.517,1440.08C610.222,1416.96 582.854,1415.93 580.743,1432.82C578.046,1454.39 610.066,1431 600.097,1424.35C590.921,1418.23 570.362,1428.01 590.42,1434.03C601.776,1437.43 608.699,1411.35 592.84,1415.88C580.979,1419.27 575.693,1421.72 584.372,1430.4" style="fill:none;stroke:white;stroke-width:5.54px;"/>
    <path d="M1012.51,665.119C1007.75,663.403 1010.73,667.567 1013.87,728.398C1014.44,725.33 1023.63,676.312 1040.4,699.786C1052.24,716.356 1035.44,735.601 1015,730.026C1013.77,729.691 1015.02,726.733 1013.79,726.397" style="fill:none;stroke:white;stroke-width:5.54px;"/>
    <path d="M949.079,621.297C950.726,624.244 947.218,624.121 949.679,663.497" style="fill:none;stroke:white;stroke-width:5.54px;"/>
    <path d="M1154.12,626.273C1150.45,625.452 1153.73,628.5 1156.52,673.174" style="fill:none;stroke:white;stroke-width:5.54px;"/>
    <path d="M587.852,1396.29C586.22,1402.25 591.566,1433.45 592.84,1469.11" style="fill:none;stroke:white;stroke-width:5.54px;"/>
    <path d="M1143.71,1390.67C1139.57,1393.16 1146.42,1394.73 1140.8,1450.96" style="fill:none;stroke:white;stroke-width:5.54px;"/>
    <path d="M1328.29,1100.17C1362.78,1088.67 1335.42,1056.88 1323.45,1067.51C1306.88,1082.24 1318.06,1111.09 1331.92,1098.96C1359.17,1075.12 1351.86,1025.71 1351.27,1007.03C1351.39,1012.98 1354.52,1166.09 1379.1,1075.98C1384.7,1083.45 1386.52,1086.79 1392.4,1079.61C1408.77,1059.61 1384.03,1051.79 1380.31,1063.88C1370.75,1094.93 1401.93,1113.64 1427.48,1084.45" style="fill:none;stroke:white;stroke-width:5.54px;"/>
    <path d="M1429.17,1059.68C1425.34,1054.61 1430.71,1062.87 1433.53,1138.88C1434.91,1132.35 1454.5,1039.72 1461.35,1060.25C1468.81,1082.64 1465.78,1116.94 1490.38,1086.87" style="fill:none;stroke:white;stroke-width:5.54px;"/>
    <path d="M1499.65,990.171C1493.78,996.483 1493.08,1000.5 1501.45,1097.09C1492.24,1061.4 1492.77,1061.89 1479.49,1027.59C1499.83,1036.75 1498.73,1040.46 1514.57,1038.48C1516.55,1038.23 1516.28,1037.76 1537.56,1028.8" style="fill:none;stroke:white;stroke-width:5.54px;"/>
    <path d="M1543.54,992.9C1532.81,999.02 1537.31,1090.32 1539.98,1096.54C1547.11,1113.18 1573.53,1058.9 1575.45,1054.96C1580.87,1083.26 1575.07,1097.26 1602.88,1091.7" style="fill:none;stroke:white;stroke-width:5.54px;"/>
    <path d="M1648.95,1073.64C1681.6,1071.3 1686.71,1071.94 1689.97,1072.35" style="fill:none;stroke:white;stroke-width:5.54px;"/>
    <path d="M1667.05,1091.78C1680,1095.39 1679.52,1094.41 1692.39,1095.33" style="fill:none;stroke:white;stroke-width:5.54px;"/>
    <path d="M1738.01,1004.14C1738.69,1031.59 1739.66,1031.31 1746.03,1094.08C1747.02,1091.54 1769.61,1033.11 1772.22,1072.35C1774.34,1104.04 1747.99,1104.96 1740.77,1095.33" style="fill:none;stroke:white;stroke-width:5.54px;"/>
    <path d="M1824.51,1029.34C1822.12,1035.17 1816.49,1048.89 1802.46,1105.01" style="fill:none;stroke:white;stroke-width:5.54px;"/>
    <path d="M1877.46,1091.7C1890.82,1081.68 1887.78,1059.15 1872.62,1056.62C1851.36,1053.08 1835.91,1091.9 1859.32,1097.75C1897.36,1107.26 1891.96,1062.98 1891.98,1062.67C1898.45,1085.97 1895.67,1089.32 1917.38,1100.17" style="fill:none;stroke:white;stroke-width:5.54px;"/>
    <path d="M1316.71,1194.03C1325.4,1195.02 1325.46,1193.23 1336.76,1192.1" style="fill:none;stroke:white;stroke-width:5.54px;"/>
    <path d="M1317.51,1212.97C1319.4,1213.71 1319.34,1212.76 1342.81,1213.88" style="fill:none;stroke:white;stroke-width:5.54px;"/>
    <path d="M1960.67,1064.01C1962.91,1064.21 1962.51,1063.55 1988.75,1065.09" style="fill:none;stroke:white;stroke-width:5.54px;"/>
    <path d="M1232.45,1385.69C1235.55,1425.71 1227.71,1425.29 1232.73,1465.48" style="fill:none;stroke:white;stroke-width:5.54px;"/>
    <path d="M1223,1396.93C1217.7,1384.03 1257.09,1368.18 1262.97,1391.69C1270.97,1423.68 1235.39,1440.56 1229.1,1427.98" style="fill:none;stroke:white;stroke-width:5.54px;"/>
    <path d="M1191.93,679.726C1191.24,701.673 1181.96,704.464 1175.88,734.865" style="fill:none;stroke:white;stroke-width:5.54px;"/>
    <path d="M1196.09,683.9C1200.28,687.579 1214.27,719.96 1217.01,733.655" style="fill:none;stroke:white;stroke-width:5.54px;"/>
    <path d="M1173.5,713.756C1173.09,713.535 1172.67,713.313 1172.25,713.092" style="fill:none;stroke:white;stroke-width:5.54px;"/>
    <path d="M1181.19,709.904C1191.52,709.757 1201.84,709.61 1212.17,709.463" style="fill:none;stroke:white;stroke-width:5.54px;"/>
    <path d="M1074.99,71.036C1077.53,75.976 1073.7,76.745 1085.16,139.73" style="fill:none;stroke:white;stroke-width:5.54px;"/>
    <path d="M1065.06,83.557C1061.82,82.245 1065.39,79.205 1108.14,76.83" style="fill:none;stroke:white;stroke-width:5.54px;"/>
    <path d="M1069.54,114.376C1072.63,114.675 1080,115.389 1108.14,110.699" style="fill:none;stroke:white;stroke-width:5.54px;"/>
    <path d="M1393.12,1155.02C1388.47,1152.32 1387.94,1157.38 1391.19,1222.34" style="fill:none;stroke:white;stroke-width:5.54px;"/>
    <path d="M1407.06,1156.15C1406.92,1156.61 1406.98,1156.2 1405.71,1219.92" style="fill:none;stroke:white;stroke-width:5.54px;"/>
    <path d="M1431.41,1158.24C1431.28,1163.08 1430.45,1192.99 1434.74,1218.71" style="fill:none;stroke:white;stroke-width:5.54px;"/>
    <path d="M1429.81,1161.12C1427.75,1160.26 1432.07,1162.08 1457.72,1160.65" style="fill:none;stroke:white;stroke-width:5.54px;"/>
    <path d="M1428.85,1185.2C1425.75,1184.39 1432.01,1185.61 1468.61,1181.22" style="fill:none;stroke:white;stroke-width:5.54px;"/>
    <path d="M1496.12,1159.84C1493.03,1158.48 1492.61,1166.44 1481.91,1219.92" style="fill:none;stroke:white;stroke-width:5.54px;"/>
    <path d="M1496.77,1157.91C1496.29,1163.45 1500.24,1162.6 1515.78,1224.76" style="fill:none;stroke:white;stroke-width:5.54px;"/>
    <path d="M1482.35,1197.4C1475.96,1195.61 1484.39,1196.15 1516.99,1194.52" style="fill:none;stroke:white;stroke-width:5.54px;"/>
    <path d="M1536.49,1157.11C1535.78,1190.64 1535.74,1190.02 1536.35,1223.55" style="fill:none;stroke:white;stroke-width:5.54px;"/>
    <path d="M1554.59,1160.8C1553.87,1166.06 1552.39,1176.79 1554.49,1227.18" style="fill:none;stroke:white;stroke-width:5.54px;"/>
    <path d="M1615.47,1154.38C1594.06,1193.21 1587.37,1222.18 1585.94,1228.39" style="fill:none;stroke:white;stroke-width:5.54px;"/>
    <path d="M1648.95,1160.64C1646.51,1165.14 1643.69,1205.23 1650.05,1221.13" style="fill:none;stroke:white;stroke-width:5.54px;"/>
    <path d="M1662.88,1164.66C1662.64,1183.48 1662.39,1202.31 1662.15,1221.13" style="fill:none;stroke:white;stroke-width:5.54px;"/>
    <path d="M1689.31,1171.56C1689.2,1176.01 1688.66,1197.02 1691.18,1227.18" style="fill:none;stroke:white;stroke-width:5.54px;"/>
    <path d="M1688.03,1167.22C1684.65,1146.61 1711.19,1149.22 1714.16,1152.18C1724.93,1162.95 1709.19,1194.88 1693.6,1189.68" style="fill:none;stroke:white;stroke-width:5.54px;"/>
    <path d="M1738.35,1160.65C1735.1,1176.91 1740.2,1233.01 1740.77,1239.28" style="fill:none;stroke:white;stroke-width:5.54px;"/>
    <path d="M1738.01,1161.44C1735.54,1162.63 1739.12,1161.86 1772.22,1161.86" style="fill:none;stroke:white;stroke-width:5.54px;"/>
    <path d="M1431.41,1139.62C1432.61,1139.7 1484.55,1134.5 1489.17,1134.04" style="fill:none;stroke:white;stroke-width:5.54px;"/>
    <path d="M1485.54,1143.72C1483.37,1137.21 1483.84,1137.61 1479.49,1115.9C1500.92,1146.26 1502.51,1144.4 1503.69,1147.35" style="fill:none;stroke:white;stroke-width:5.54px;"/>
    <path d="M1694.76,1133.35C1700.87,1133.03 1700.58,1132.2 1771.01,1126.78" style="fill:none;stroke:white;stroke-width:5.54px;"/>
    <path d="M1758.92,1141.3C1756.9,1132.03 1754.88,1122.75 1752.87,1113.48C1756.67,1116.61 1757.54,1122.44 1761.34,1125.57C1761.99,1126.11 1790.03,1134 1781.9,1138.88C1780.39,1139.79 1762.99,1145.59 1761.34,1146.14" style="fill:none;stroke:white;stroke-width:5.54px;"/>
    <path d="M1732.31,1202.99C1751.97,1195.12 1766.7,1197.25 1772.22,1196.94" style="fill:none;stroke:white;stroke-width:5.54px;"/>
    <path d="M1796.48,1162.41C1793.29,1179.2 1798.23,1218.69 1798.83,1223.55" style="fill:none;stroke:white;stroke-width:5.54px;"/>
    <path d="M1814.9,1164.34C1814.13,1169.7 1813.68,1172.74 1816.98,1232.02" style="fill:none;stroke:white;stroke-width:5.54px;"/>
    <path d="M558.538,648.906C637.203,662.049 888.292,618.174 1202.49,657.449C1455.65,689.094 1840.4,630.983 1912.54,655.03" style="fill:none;stroke:white;stroke-width:5.54px;"/>
    <path d="M1144.43,186.905C1168.71,199.045 1174.84,143.248 1152.89,157.874C1130.48,172.818 1139.56,214.627 1160.15,191.744C1185.15,163.97 1139.45,154.805 1132.33,183.276C1126.45,206.799 1170.32,183.768 1158.94,172.39C1151.65,165.094 1128.65,177.669 1137.17,184.486C1140.76,187.357 1156.56,191.562 1160.15,173.599C1161.61,166.323 1149.58,162.852 1143.22,172.39" style="fill:none;stroke:white;stroke-width:5.54px;"/>
    <path d="M1866.57,1196.94C1876.71,1194.41 1872.01,1191.04 1871.41,1190.89C1861.98,1188.53 1849.65,1207.71 1868.99,1204.2C1889.78,1200.42 1860.33,1195.89 1859.32,1195.73" style="fill:none;stroke:white;stroke-width:5.54px;"/>
    <path d="M1931.72,1179.33C1925.52,1161.65 1902.17,1179.31 1910.12,1187.26C1910.93,1188.08 1968.41,1198.24 1945.2,1224.76C1932.66,1239.09 1919.11,1202.66 1937.94,1200.57C1959.99,1198.12 1966.24,1198.35 1964.55,1176.38C1970.67,1195.94 1970.97,1228.06 1989.96,1219.92" style="fill:none;stroke:white;stroke-width:5.54px;"/>
    <path d="M1987.26,1147.13C1985.59,1147.52 1986.18,1147.79 1985.12,1150.98" style="fill:none;stroke:white;stroke-width:5.54px;"/>
    <path d="M2024.18,1207.85C2048.65,1194.55 2018.95,1167.22 2005.68,1192.1C2001.04,1200.8 2005.18,1208.79 2006.89,1209.04C2033.46,1212.83 2035.38,1192.74 2037.13,1189.68C2048.42,1264.95 2051.93,1279.62 2035.92,1282.82C2029.2,1284.17 2012.75,1221.43 2066.16,1205.41" style="fill:none;stroke:white;stroke-width:5.54px;"/>
    <path d="M2069.79,1182.43C2077.88,1202.64 2076.96,1202.33 2083.13,1222.97C2085.28,1216.62 2088.2,1210.55 2090.35,1204.2C2091.06,1202.11 2090.99,1202.26 2098.99,1178.01C2107.39,1222.34 2109.61,1222.34 2113.34,1222.34" style="fill:none;stroke:white;stroke-width:5.54px;"/>
    <path d="M2152.04,1165.49C2138.33,1199.77 2144.09,1210.07 2153.25,1228.39" style="fill:none;stroke:white;stroke-width:5.54px;"/>
    <path d="M1335.3,1259.95C1330.23,1262.49 1315.72,1301.07 1344.25,1321.45" style="fill:none;stroke:white;stroke-width:5.54px;"/>
    <path d="M1377.27,1268.16C1377.37,1271.83 1378.19,1303.25 1383.38,1313.62" style="fill:none;stroke:white;stroke-width:5.54px;"/>
    <path d="M1368.85,1264.42C1381.43,1260.23 1381.33,1262.41 1404.62,1263.31" style="fill:none;stroke:white;stroke-width:5.54px;"/>
    <path d="M1369.41,1291.41C1364.62,1290.11 1401.79,1285.98 1404.62,1285.67" style="fill:none;stroke:white;stroke-width:5.54px;"/>
    <path d="M1362.58,1244.77C1365.77,1244.48 1365.52,1245.09 1402.39,1248.77" style="fill:none;stroke:white;stroke-width:5.54px;"/>
    <path d="M1409.1,1253.24C1407.8,1251.95 1405.84,1233.69 1404.62,1226.41C1409.88,1239.54 1408.42,1240.18 1419.16,1248.77C1423.15,1251.97 1422.44,1251.98 1424.75,1256.6" style="fill:none;stroke:white;stroke-width:5.54px;"/>
    <path d="M1428.91,1264.02C1427.62,1266.47 1431.81,1266.98 1422.52,1297.97C1418.18,1312.4 1418.04,1312.36 1418.04,1313.62" style="fill:none;stroke:white;stroke-width:5.54px;"/>
    <path d="M1427.27,1265.35C1430.74,1270.81 1448.66,1306.65 1450.47,1310.27" style="fill:none;stroke:white;stroke-width:5.54px;"/>
    <path d="M1422.52,1290.14C1437.43,1296.11 1437.55,1294.21 1448.23,1295.73" style="fill:none;stroke:white;stroke-width:5.54px;"/>
    <path d="M1482.47,1284.75C1481.18,1286.2 1480.78,1285.92 1481.77,1287.9" style="fill:none;stroke:white;stroke-width:5.54px;"/>
    <path d="M1523.87,1260.76C1519.64,1262.57 1522.48,1264.2 1527.62,1318.09" style="fill:none;stroke:white;stroke-width:5.54px;"/>
    <path d="M1516,1262.69C1511.77,1259.61 1536.88,1240.68 1543.27,1257.72C1553.33,1284.55 1528.5,1294.48 1525.38,1295.73" style="fill:none;stroke:white;stroke-width:5.54px;"/>
    <path d="M1561.11,1253.51C1565.34,1310.16 1564.73,1310 1566.75,1318.09" style="fill:none;stroke:white;stroke-width:5.54px;"/>
    <path d="M1556.8,1260.17C1575.49,1259.64 1574.99,1259.17 1589.11,1259.95" style="fill:none;stroke:white;stroke-width:5.54px;"/>
    <path d="M1557.55,1295.56C1555.26,1296.02 1570.37,1289.06 1596.94,1292.38" style="fill:none;stroke:white;stroke-width:5.54px;"/>
    <path d="M1520.6,1236.78C1521.75,1239.83 1522.95,1235.51 1561.16,1233.12C1580.11,1231.93 1579.74,1233.09 1598.06,1229.76" style="fill:none;stroke:white;stroke-width:5.54px;"/>
    <path d="M1586.87,1238.71C1586.87,1235.96 1574.63,1217.05 1573.46,1215.23C1578.43,1217.36 1598.06,1222.99 1598.06,1230.88C1598.06,1242.81 1582.09,1248.13 1580.17,1248.77" style="fill:none;stroke:white;stroke-width:5.54px;"/>
    <path d="M1619.3,1249.89C1641.87,1278.11 1640.56,1294.56 1631.6,1319.21" style="fill:none;stroke:white;stroke-width:5.54px;"/>
</svg>
