<?xml version="1.0" encoding="UTF-8" standalone="no"?>
<!DOCTYPE svg PUBLIC "-//W3C//DTD SVG 1.1//EN" "http://www.w3.org/Graphics/SVG/1.1/DTD/svg11.dtd">
<svg width="100%" height="100%" viewBox="0 0 2481 1749" version="1.1" xmlns="http://www.w3.org/2000/svg" xmlns:xlink="http://www.w3.org/1999/xlink" xml:space="preserve" xmlns:serif="http://www.serif.com/" style="fill-rule:evenodd;clip-rule:evenodd;stroke-linecap:round;stroke-linejoin:round;stroke-miterlimit:1.5;">
    <path d="M597.464,1429.51C766.112,1428.69 765.367,1423.97 901.294,1418.3C1021.24,1413.3 1020.93,1417 1140.8,1425.56" style="fill:none;stroke:white;stroke-width:10.12px;"/>
    <path d="M877.101,1518.7C894.563,1489.6 870.676,1451.72 850.489,1492.09C829.835,1533.4 877.564,1534.25 889.197,1499.35C889.535,1498.33 893.385,1486.79 890.407,1486.04C883.309,1484.27 880.912,1534.83 923.067,1527.17" style="fill:none;stroke:white;stroke-width:10.12px;"/>
    <path d="M571.994,632.694L572.276,633.256L577.719,627.813C580.512,625.393 581.237,624.764 609.774,594.548" style="fill:none;stroke:white;stroke-width:10.12px;"/>
    <path d="M656.413,563.189C659.216,559.16 660.815,556.861 702.915,523.181" style="fill:none;stroke:white;stroke-width:10.12px;"/>
    <path d="M759.415,489.35C760.022,487.199 792.628,467.001 800.895,461.49" style="fill:none;stroke:white;stroke-width:10.12px;"/>
    <path d="M853.126,417.758C852.523,414.912 891.737,378.834 895.245,375.607" style="fill:none;stroke:white;stroke-width:10.12px;"/>
    <path d="M945.074,341.351C949.481,340.282 948.971,340.406 990.806,307.868" style="fill:none;stroke:white;stroke-width:10.12px;"/>
    <path d="M1041.67,269.117C1057.39,253.181 1057.55,254.189 1073.06,237.71" style="fill:none;stroke:white;stroke-width:10.12px;"/>
    <path d="M1115.36,213.256C1112.48,213.898 1114.23,210.65 1138.38,184.486" style="fill:none;stroke:white;stroke-width:10.12px;"/>
    <path d="M1168.06,175.855C1174.85,192.441 1248.23,229.13 1255.71,232.871" style="fill:none;stroke:white;stroke-width:10.12px;"/>
    <path d="M1316.19,277.627C1335.69,293.875 1337.21,290.738 1359.74,303.029" style="fill:none;stroke:white;stroke-width:10.12px;"/>
    <path d="M1425.8,351.143C1428.08,364.235 1457.87,369.651 1477.07,381.655" style="fill:none;stroke:white;stroke-width:10.12px;"/>
    <path d="M1551.23,413.745C1551.9,417.098 1552,417.829 1601.67,445.765" style="fill:none;stroke:white;stroke-width:10.12px;"/>
    <path d="M1686.27,505.883C1687.96,509.566 1688.63,511.021 1729.89,531.648" style="fill:none;stroke:white;stroke-width:10.12px;"/>
    <path d="M1793.6,574.425C1796.1,586.842 1811.4,570.399 1846.01,612.693" style="fill:none;stroke:white;stroke-width:10.12px;"/>
    <path d="M1882.3,629.628C1884.33,631.255 1889.21,635.157 1910.12,646.562" style="fill:none;stroke:white;stroke-width:10.12px;"/>
    <path d="M1146.85,190.534C1176.03,161.35 1150.43,159.819 1148.06,160.294C1132.29,163.447 1133.5,209.93 1157.73,185.696C1170.1,173.327 1152.29,164.94 1145.64,176.019C1134.28,194.952 1157.96,181.419 1158.94,180.857" style="fill:none;stroke:white;stroke-width:10.12px;"/>
    <path d="M1252.16,105.548C1246.49,106.931 1252.96,109.534 1255.71,178.438" style="fill:none;stroke:white;stroke-width:10.12px;"/>
    <path d="M1242.41,101.022C1265.23,99.679 1264.84,101.58 1287.16,97.393" style="fill:none;stroke:white;stroke-width:10.12px;"/>
    <path d="M1238.78,143.359C1242.87,143.018 1242.24,141.361 1289.58,136.101" style="fill:none;stroke:white;stroke-width:10.12px;"/>
    <path d="M1335.55,160.294C1356.83,133.687 1318.09,122.906 1308.94,145.778C1299.45,169.483 1338.16,212.949 1358.53,151.826" style="fill:none;stroke:white;stroke-width:10.12px;"/>
    <path d="M1419.01,131.263C1392.42,126.83 1389.19,160.983 1394.82,167.551C1410.16,185.454 1432.22,168.303 1434.74,166.342" style="fill:none;stroke:white;stroke-width:10.12px;"/>
    <path d="M1462.56,133.682C1462.26,137.001 1459.63,165.912 1480.7,171.18C1493.45,174.366 1500.63,133.676 1501.27,130.053C1500.45,149.679 1493.37,178.065 1519.41,174.809" style="fill:none;stroke:white;stroke-width:10.12px;"/>
    <path d="M1570.22,122.795C1538.91,129.752 1545.79,139.194 1538.77,149.407C1549.67,149.811 1586.44,147.353 1588.36,162.713C1589.17,169.164 1573.1,185.235 1571.42,186.905" style="fill:none;stroke:white;stroke-width:10.12px;"/>
    <path d="M1860.56,735.587C1862.73,776.546 1861.74,776.028 1865.36,805.023" style="fill:none;stroke:white;stroke-width:10.12px;"/>
    <path d="M1857.99,732.858C1875.62,713.821 1890.98,729.285 1891.98,737.284C1894.42,756.836 1869.34,761.015 1866.57,761.477" style="fill:none;stroke:white;stroke-width:10.12px;"/>
    <path d="M1917.74,766.086C1916.43,766.277 1917.09,766.023 1916.17,765.105" style="fill:none;stroke:white;stroke-width:10.12px;"/>
    <path d="M1949.14,724.832C1948.98,731.352 1950.26,731.212 1953.67,806.233" style="fill:none;stroke:white;stroke-width:10.12px;"/>
    <path d="M1957.3,722.769C1986.69,716.889 2000.27,741.43 1969.39,753.009C1969.39,753.009 1952.41,759.541 1953.67,759.057" style="fill:none;stroke:white;stroke-width:10.12px;"/>
    <path d="M2005.68,691.318C2013.04,742.828 2009.3,761.544 2008.1,767.525" style="fill:none;stroke:white;stroke-width:10.12px;"/>
    <path d="M2037.4,732.055C2036.59,729.615 2032.78,725.041 2044.39,721.559C2059.1,717.145 2061.03,752.071 2062.53,766.315C2060.61,751.905 2064.3,747.622 2050.44,744.542C2044.66,743.258 2045.58,745.927 2032.15,761.144C2048.25,762.218 2047.68,763.188 2063.74,760.267" style="fill:none;stroke:white;stroke-width:10.12px;"/>
    <path d="M2085.51,726.397C2089.34,749.366 2089.76,748.942 2092.3,772.098C2100.93,757.671 2109.55,743.244 2118.18,728.817C2121.57,771.305 2123.4,778.282 2137.53,773.573" style="fill:none;stroke:white;stroke-width:10.12px;"/>
    <path d="M2154.5,759.504C2168.74,764.067 2196.47,711.379 2170.19,726.397C2158.87,732.865 2157.17,754.327 2161.72,761.477C2170.51,775.292 2208.28,777.008 2212.53,777.202" style="fill:none;stroke:white;stroke-width:10.12px;"/>
    <path d="M1765.72,746.181C1758.55,745.211 1743.9,757.493 1740.77,759.057C1690.05,784.418 1665.92,695.981 1665.78,696.157" style="fill:none;stroke:white;stroke-width:10.12px;"/>
    <path d="M1637.95,725.188C1652.72,680.885 1659.51,682.63 1662.15,685.27C1678.24,701.358 1677.34,704.241 1699.64,705.834" style="fill:none;stroke:white;stroke-width:10.12px;"/>
    <path d="M598.265,1424.06C592.633,1415.28 612.145,1420.36 655.74,1307.02C666.792,1278.28 718.453,1196.5 753.719,1097.75C767.671,1058.69 813.835,1016.17 863.795,841.312C875.203,801.384 980.777,582.297 1012.58,486.892C1034.82,420.181 1043.74,424.383 1067.01,357.462C1071.92,343.355 1074.48,344.657 1145.64,188.115" style="fill:none;stroke:white;stroke-width:10.12px;"/>
    <path d="M1156.68,200.896C1158.28,205.377 1149.27,634.808 1149.27,750.59C1149.27,804.082 1125.94,972.507 1139.59,1190.89C1150.76,1369.66 1148.92,1410.13 1148.06,1429.19" style="fill:none;stroke:white;stroke-width:10.12px;"/>
    <path d="M1166.2,1453.38C1208.03,1418.52 1132.93,1398.36 1128.7,1427.98C1125.8,1448.33 1179.34,1439.9 1162.57,1423.14C1149.39,1409.96 1117.96,1425.3 1139.59,1437.66C1157.8,1448.06 1168.79,1424.87 1148.06,1420.72C1138.79,1418.87 1135.08,1430.73 1138.38,1434.03C1146.74,1442.38 1156.85,1424.68 1157.73,1423.14" style="fill:none;stroke:white;stroke-width:10.12px;"/>
    <path d="M602.517,1440.08C610.222,1416.96 582.854,1415.93 580.743,1432.82C578.046,1454.39 610.066,1431 600.097,1424.35C590.921,1418.23 570.362,1428.01 590.42,1434.03C601.776,1437.43 608.699,1411.35 592.84,1415.88C580.979,1419.27 575.693,1421.72 584.372,1430.4" style="fill:none;stroke:white;stroke-width:10.12px;"/>
    <path d="M1012.51,665.119C1007.75,663.403 1010.73,667.567 1013.87,728.398C1014.44,725.33 1023.63,676.312 1040.4,699.786C1052.24,716.356 1035.44,735.601 1015,730.026C1013.77,729.691 1015.02,726.733 1013.79,726.397" style="fill:none;stroke:white;stroke-width:10.12px;"/>
    <path d="M949.079,621.297C950.726,624.244 947.218,624.121 949.679,663.497" style="fill:none;stroke:white;stroke-width:10.12px;"/>
    <path d="M1154.12,626.273C1150.45,625.452 1153.73,628.5 1156.52,673.174" style="fill:none;stroke:white;stroke-width:10.12px;"/>
    <path d="M587.852,1396.29C586.22,1402.25 591.566,1433.45 592.84,1469.11" style="fill:none;stroke:white;stroke-width:10.12px;"/>
    <path d="M1143.71,1390.67C1139.57,1393.16 1146.42,1394.73 1140.8,1450.96" style="fill:none;stroke:white;stroke-width:10.12px;"/>
    <path d="M1232.45,1385.69C1235.55,1425.71 1227.71,1425.29 1232.73,1465.48" style="fill:none;stroke:white;stroke-width:10.12px;"/>
    <path d="M1223,1396.93C1217.7,1384.03 1257.09,1368.18 1262.97,1391.69C1270.97,1423.68 1235.39,1440.56 1229.1,1427.98" style="fill:none;stroke:white;stroke-width:10.12px;"/>
    <path d="M1191.93,679.726C1191.24,701.673 1181.96,704.464 1175.88,734.865" style="fill:none;stroke:white;stroke-width:10.12px;"/>
    <path d="M1196.09,683.9C1200.28,687.579 1214.27,719.96 1217.01,733.655" style="fill:none;stroke:white;stroke-width:10.12px;"/>
    <path d="M1173.5,713.756C1173.09,713.535 1172.67,713.313 1172.25,713.092" style="fill:none;stroke:white;stroke-width:10.12px;"/>
    <path d="M1181.19,709.904C1191.52,709.757 1201.84,709.61 1212.17,709.463" style="fill:none;stroke:white;stroke-width:10.12px;"/>
    <path d="M1074.99,71.036C1077.53,75.976 1073.7,76.745 1085.16,139.73" style="fill:none;stroke:white;stroke-width:10.12px;"/>
    <path d="M1065.06,83.557C1061.82,82.245 1065.39,79.205 1108.14,76.83" style="fill:none;stroke:white;stroke-width:10.12px;"/>
    <path d="M1069.54,114.376C1072.63,114.675 1080,115.389 1108.14,110.699" style="fill:none;stroke:white;stroke-width:10.12px;"/>
    <path d="M558.538,648.906C637.203,662.049 888.292,618.174 1202.49,657.449C1455.65,689.094 1840.4,630.983 1912.54,655.03" style="fill:none;stroke:white;stroke-width:10.12px;"/>
    <path d="M1144.43,186.905C1168.71,199.045 1174.84,143.248 1152.89,157.874C1130.48,172.818 1139.56,214.627 1160.15,191.744C1185.15,163.97 1139.45,154.805 1132.33,183.276C1126.45,206.799 1170.32,183.768 1158.94,172.39C1151.65,165.094 1128.65,177.669 1137.17,184.486C1140.76,187.357 1156.56,191.562 1160.15,173.599C1161.61,166.323 1149.58,162.852 1143.22,172.39" style="fill:none;stroke:white;stroke-width:10.12px;"/>
    <path d="M1291.7,925.643C1267.85,928.027 1270.53,933.904 1258.15,942.763C1262.35,944.034 1307.35,957.656 1307.35,967.012C1307.35,978.375 1271.93,1000.15 1263.75,983.783" style="fill:none;stroke:white;stroke-width:10.12px;"/>
    <path d="M1344.25,926.761C1333.2,932.282 1329.69,972.199 1334.18,978.193C1343.23,990.25 1345.64,982.265 1357.79,973.438C1382.02,979.199 1391.04,978.431 1388.97,953.595C1388.36,946.268 1371.8,920.031 1363.26,951.359C1359.2,966.227 1366.26,1008.04 1394.27,965.633C1409.08,978.964 1415.42,979.493 1423.63,961.422C1438.94,927.745 1427.01,883.404 1426.99,883.155C1425.44,890.329 1410.75,958.27 1423.63,974.839C1446.71,1004.51 1453.29,958.434 1453.69,955.608C1457.48,962.232 1460.27,974.339 1473.95,977.075" style="fill:none;stroke:white;stroke-width:10.12px;"/>
    <path d="M1474.9,923.463C1473.09,923.071 1471.28,922.68 1469.48,922.288" style="fill:none;stroke:white;stroke-width:10.12px;"/>
    <path d="M1486.48,944.044C1482.68,942.6 1485.49,946.342 1500.56,989.821C1505.07,979.033 1517.34,945.822 1519.79,958.067C1520.11,959.649 1522.86,973.441 1526.5,977.075C1538.7,989.281 1538.01,976.208 1545.14,960.933C1568.15,1003.12 1570.89,961.026 1570.1,959.185C1558.45,932.006 1544.63,962.779 1552.21,970.366C1562.35,980.498 1562.28,970.268 1573.03,959.054C1587.88,997.563 1606.39,1044.35 1587.99,1046.4C1584.85,1046.75 1554.57,1032.81 1590.23,983.783" style="fill:none;stroke:white;stroke-width:10.12px;"/>
    <path d="M1631.6,952.477L1655.08,952.477" style="fill:none;stroke:white;stroke-width:10.12px;"/>
    <path d="M1636.07,970.366C1643.15,970.739 1650.23,971.112 1657.31,971.484" style="fill:none;stroke:white;stroke-width:10.12px;"/>
    <path d="M1711.85,888.667C1708.04,893.904 1716.93,894.31 1719.93,969.248C1733.42,931.762 1740.06,934.595 1742.29,936.824C1750.68,945.213 1768.36,993.655 1728.87,983.783" style="fill:none;stroke:white;stroke-width:10.12px;"/>
    <path d="M1807.7,896.366C1795.03,951.182 1792.27,950.346 1788.13,993.846" style="fill:none;stroke:white;stroke-width:10.12px;"/>
    <path d="M1841.24,964.922C1868.28,995.908 1876.76,918.124 1841.8,931.233C1831.28,935.176 1826.68,962.61 1837.33,971.484C1858.48,989.109 1875,951.349 1876.46,948.004C1877.62,966.527 1876.73,970.314 1895.47,973.721" style="fill:none;stroke:white;stroke-width:10.12px;"/>
    <path d="M1939.61,940.935C1938.65,943.59 1941.47,940.327 1974.85,942.414" style="fill:none;stroke:white;stroke-width:10.12px;"/>
    <path d="M1952.52,965.958C1968.23,968.435 1967.87,967.85 1983.8,967.012" style="fill:none;stroke:white;stroke-width:10.12px;"/>
    <path d="M1242.85,1114.47C1244.17,1116.61 1244.58,1117.27 1273.81,1120.19" style="fill:none;stroke:white;stroke-width:10.12px;"/>
    <path d="M1245.81,1142.01C1238.29,1145.8 1256.47,1138.02 1290.58,1141.43" style="fill:none;stroke:white;stroke-width:10.12px;"/>
    <path d="M1350.42,1082.64C1345.2,1078.48 1349.18,1086.18 1350.96,1166.03" style="fill:none;stroke:white;stroke-width:10.12px;"/>
    <path d="M1347,1086.34C1345.14,1083.44 1350.16,1091.24 1390.09,1085.53" style="fill:none;stroke:white;stroke-width:10.12px;"/>
    <path d="M1347.6,1122.43C1356.57,1121.66 1360.66,1125.59 1395.68,1116.84" style="fill:none;stroke:white;stroke-width:10.12px;"/>
    <path d="M1428.46,1082.19C1415.34,1094 1413.78,1146.39 1407.98,1163.8" style="fill:none;stroke:white;stroke-width:10.12px;"/>
    <path d="M1424.6,1080.41C1419.33,1084.86 1420.17,1086.93 1450.47,1162.68" style="fill:none;stroke:white;stroke-width:10.12px;"/>
    <path d="M1413.33,1139.64C1413.63,1140.49 1444.41,1139.3 1447.11,1139.2" style="fill:none;stroke:white;stroke-width:10.12px;"/>
    <path d="M1345.97,1061.02C1348.86,1066.78 1440.06,1061.41 1448.23,1060.93" style="fill:none;stroke:white;stroke-width:10.12px;"/>
    <path d="M1442.64,1063.17C1432.92,1048.59 1434.92,1048.25 1429.22,1031.86C1443.89,1051.76 1443.34,1051.67 1461.7,1068.81C1460,1069.34 1443.76,1074.35 1440.4,1075.47" style="fill:none;stroke:white;stroke-width:10.12px;"/>
    <path d="M1307.09,1071.53C1307.47,1075.68 1303.67,1080.39 1311.82,1153.73" style="fill:none;stroke:white;stroke-width:10.12px;"/>
    <path d="M1329.94,1076.27C1329.89,1082.83 1329.79,1095.48 1331.95,1158.21" style="fill:none;stroke:white;stroke-width:10.12px;"/>
    <path d="M1495.82,1082.78C1495.91,1089.63 1497.63,1154.04 1498.55,1160.44" style="fill:none;stroke:white;stroke-width:10.12px;"/>
    <path d="M1517.19,1068.72C1517.27,1069.25 1517.23,1068.75 1522.03,1161.56" style="fill:none;stroke:white;stroke-width:10.12px;"/>
    <path d="M1573.27,1075.68C1566.17,1086.56 1554.53,1152.55 1553.33,1159.32" style="fill:none;stroke:white;stroke-width:10.12px;"/>
    <path d="M1610.81,1071.97C1610.75,1079.05 1610.35,1121.31 1611.47,1160.44" style="fill:none;stroke:white;stroke-width:10.12px;"/>
    <path d="M1635,1067.53C1634.79,1074.96 1635.48,1074.83 1633.83,1160.44" style="fill:none;stroke:white;stroke-width:10.12px;"/>
    <path d="M1670.16,1071.53C1663.04,1093.62 1668.91,1152.34 1669.61,1159.32" style="fill:none;stroke:white;stroke-width:10.12px;"/>
    <path d="M1669.87,1090.34C1664.58,1071.78 1690.2,1073.56 1691.98,1087.77C1694.8,1110.37 1689.09,1109.89 1668.5,1120.19" style="fill:none;stroke:white;stroke-width:10.12px;"/>
    <path d="M1736.04,1078.49C1732.54,1089.57 1730.91,1107.45 1715.45,1161.56" style="fill:none;stroke:white;stroke-width:10.12px;"/>
    <path d="M1736.19,1080.12C1736.83,1092.47 1744.68,1127.21 1763.53,1164.91" style="fill:none;stroke:white;stroke-width:10.12px;"/>
    <path d="M1719.57,1137.57C1724.8,1140.85 1725.21,1138.89 1763.53,1133.61" style="fill:none;stroke:white;stroke-width:10.12px;"/>
    <path d="M1663.93,1042.21C1677.02,1041.55 1720.6,1044.9 1725.52,1045.28" style="fill:none;stroke:white;stroke-width:10.12px;"/>
    <path d="M1725.52,1054.22C1719.34,1039.81 1720.83,1039.73 1717.69,1024.04C1725.88,1032.91 1724.38,1034.73 1750.19,1049.46C1727.84,1057.2 1727.18,1055.92 1722.16,1060.93" style="fill:none;stroke:white;stroke-width:10.12px;"/>
    <path d="M1789.31,1070.35C1791.49,1128.02 1791.49,1184.09 1791.49,1193.99" style="fill:none;stroke:white;stroke-width:10.12px;"/>
    <path d="M1820.32,1072.57C1817.49,1071.1 1818.01,1073.81 1819.44,1112.36C1819.62,1117.2 1821.28,1162.17 1822.79,1172.74" style="fill:none;stroke:white;stroke-width:10.12px;"/>
    <path d="M1866.9,1115.36C1867.11,1115.48 1867.31,1115.6 1867.52,1115.72" style="fill:none;stroke:white;stroke-width:10.12px;"/>
    <path d="M1286.47,1261.65C1285.79,1264.75 1287.36,1263 1290.58,1262.19" style="fill:none;stroke:white;stroke-width:10.12px;"/>
    <path d="M1340.89,1221.94C1319,1232.89 1322.71,1251.28 1335.3,1255.48C1338.35,1256.49 1382.11,1271.08 1355.43,1290.14C1339.41,1301.58 1325,1289.57 1323,1287.9" style="fill:none;stroke:white;stroke-width:10.12px;"/>
    <path d="M1390.09,1280.08C1415.06,1270.09 1407.48,1217.66 1388.97,1230.88C1373.17,1242.17 1382.56,1299.39 1410.03,1252.5C1411.54,1257.69 1442.68,1344.19 1413.57,1339.34C1410.33,1338.8 1372.19,1291.97 1428.11,1276.72" style="fill:none;stroke:white;stroke-width:10.12px;"/>
    <path d="M1438.17,1234.24C1440.4,1244.3 1447.44,1278.47 1448.23,1282.32C1457.11,1261.6 1457.97,1262.53 1466.81,1241.51C1476.41,1288.59 1477.25,1299.09 1499.66,1296.85" style="fill:none;stroke:white;stroke-width:10.12px;"/>
    <path d="M1533.21,1225.97C1530.31,1227.11 1529.26,1232.58 1528.73,1235.36C1520.56,1278.96 1532.39,1290.01 1537.68,1299.09" style="fill:none;stroke:white;stroke-width:10.12px;"/>
    <path d="M1574.16,1231.89C1570.17,1232.52 1572.63,1234.61 1577.93,1282.32" style="fill:none;stroke:white;stroke-width:10.12px;"/>
    <path d="M1568.99,1233.12C1572.54,1234.01 1584.27,1236.94 1614.83,1233.12" style="fill:none;stroke:white;stroke-width:10.12px;"/>
    <path d="M1573.46,1261.07C1579.03,1261.54 1584.66,1260.61 1590.23,1261.07C1591.49,1261.18 1591.39,1261.24 1605.88,1263.31" style="fill:none;stroke:white;stroke-width:10.12px;"/>
    <path d="M1650.61,1232C1645.52,1242.18 1637.99,1288.05 1632.72,1309.15" style="fill:none;stroke:white;stroke-width:10.12px;"/>
    <path d="M1652.84,1243.18C1663.8,1269.21 1663.97,1279.27 1676.32,1295.73" style="fill:none;stroke:white;stroke-width:10.12px;"/>
    <path d="M1634.95,1280.08C1642.78,1281.2 1665.81,1282.2 1668.5,1282.32" style="fill:none;stroke:white;stroke-width:10.12px;"/>
    <path d="M1577.58,1205.38C1571.95,1203.78 1582.03,1206.66 1650.61,1209.64" style="fill:none;stroke:white;stroke-width:10.12px;"/>
    <path d="M1649.49,1214.11C1655.76,1201.57 1649.69,1201.71 1642.78,1186.16C1650.31,1202.29 1650.66,1203.35 1669.61,1208.52C1679.04,1211.09 1675.2,1213.94 1675.2,1215.23" style="fill:none;stroke:white;stroke-width:10.12px;"/>
    <path d="M1717.94,1258.25C1717.75,1258.29 1717.88,1257.67 1717.69,1257.72C1717.42,1257.78 1717.69,1257.72 1714.34,1258.84" style="fill:none;stroke:white;stroke-width:10.12px;"/>
    <path d="M1765.71,1232.63C1758.9,1271.64 1757.31,1271.94 1766.89,1310.27" style="fill:none;stroke:white;stroke-width:10.12px;"/>
    <path d="M1757.11,1245.66C1758.63,1243.87 1777.63,1221.63 1785.89,1239.83C1787.36,1243.04 1795.03,1267.97 1768.01,1273.37" style="fill:none;stroke:white;stroke-width:10.12px;"/>
    <path d="M1831.44,1232.04C1827.63,1237.04 1826.1,1239.05 1816.08,1309.15" style="fill:none;stroke:white;stroke-width:10.12px;"/>
    <path d="M1832.18,1239.74C1839.98,1240.79 1848.02,1288.67 1854.1,1306.91" style="fill:none;stroke:white;stroke-width:10.12px;"/>
    <path d="M1817.35,1281.34C1832.72,1284.58 1832.25,1282.25 1848.51,1280.08" style="fill:none;stroke:white;stroke-width:10.12px;"/>
    <path d="M1761.56,1204.5C1760.78,1206.49 1762.73,1205.09 1788.13,1207.4C1834.72,1211.64 1834.4,1207.19 1844.04,1206.28" style="fill:none;stroke:white;stroke-width:10.12px;"/>
    <path d="M1840.68,1221.94C1839.56,1219.68 1837.89,1216.35 1831.74,1191.75C1845.47,1207.6 1845.07,1207.44 1863.72,1217.46L1846.27,1217.46" style="fill:none;stroke:white;stroke-width:10.12px;"/>
    <path d="M1889.01,1212.2C1886.36,1220.57 1919.5,1252.25 1901.06,1300.2" style="fill:none;stroke:white;stroke-width:10.12px;"/>
    <path d="M1954.89,1250.84C1954.19,1246.75 1985.62,1250.68 1988.27,1251.01" style="fill:none;stroke:white;stroke-width:10.12px;"/>
    <path d="M1960.32,1268.9C1977.54,1273.2 1984.71,1271.01 1987.15,1271.13" style="fill:none;stroke:white;stroke-width:10.12px;"/>
    <path d="M1326.36,1414.25L1358.78,1414.25" style="fill:none;stroke:white;stroke-width:10.12px;"/>
    <path d="M1326.83,1433.11C1319.19,1453.75 1337.18,1433.55 1367.73,1434.38" style="fill:none;stroke:white;stroke-width:10.12px;"/>
    <path d="M1440.4,1379.59L1440.4,1451.15" style="fill:none;stroke:white;stroke-width:10.12px;"/>
    <path d="M1436.62,1378.18C1435.4,1380.67 1437.52,1380.45 1470.59,1385.18" style="fill:none;stroke:white;stroke-width:10.12px;"/>
    <path d="M1440.4,1416.49C1451.59,1416.86 1462.77,1417.23 1473.95,1417.6" style="fill:none;stroke:white;stroke-width:10.12px;"/>
    <path d="M1498.94,1384.25C1498.79,1386.3 1487.92,1442.76 1485.13,1451.15" style="fill:none;stroke:white;stroke-width:10.12px;"/>
    <path d="M1498.64,1390.77C1499.24,1394.02 1499.17,1393.66 1511.96,1429.9C1515.39,1439.62 1514.81,1439.66 1520.91,1447.79" style="fill:none;stroke:white;stroke-width:10.12px;"/>
    <path d="M1494.07,1429.9C1501.15,1429.16 1508.24,1428.41 1515.32,1427.67" style="fill:none;stroke:white;stroke-width:10.12px;"/>
    <path d="M1439.29,1353.87C1469.35,1354.91 1468.85,1355.11 1498.55,1353.87" style="fill:none;stroke:white;stroke-width:10.12px;"/>
    <path d="M1495.19,1362.82C1491.46,1349.76 1491.61,1350.25 1485.81,1329.78C1510.9,1356.06 1514.15,1355.13 1511.96,1361.7" style="fill:none;stroke:white;stroke-width:10.12px;"/>
    <path d="M1551.76,1407.94C1551.57,1408.02 1551.85,1407.9 1549.98,1409.78" style="fill:none;stroke:white;stroke-width:10.12px;"/>
    <path d="M1595.23,1381.88C1591.28,1406.41 1593.96,1453.76 1598.06,1457.86" style="fill:none;stroke:white;stroke-width:10.12px;"/>
    <path d="M1587.81,1391.36C1585.49,1392.67 1589.79,1390.24 1620.42,1398.6" style="fill:none;stroke:white;stroke-width:10.12px;"/>
    <path d="M1586.87,1425.43C1600.66,1423.94 1614.45,1422.45 1628.24,1420.96" style="fill:none;stroke:white;stroke-width:10.12px;"/>
    <path d="M1657.4,1395.36C1651.99,1402.9 1655.72,1403.67 1647.25,1454.5" style="fill:none;stroke:white;stroke-width:10.12px;"/>
    <path d="M1659.78,1399.95C1659.55,1403.13 1674.78,1433.09 1678.56,1444.44C1680.58,1450.49 1677.91,1451.62 1685.27,1458.97" style="fill:none;stroke:white;stroke-width:10.12px;"/>
    <path d="M1651.72,1432.14C1665.31,1438.93 1665.74,1434.59 1679.68,1428.79" style="fill:none;stroke:white;stroke-width:10.12px;"/>
    <path d="M1592.47,1361.7C1621.58,1359.76 1621.24,1361.36 1650.61,1359.46" style="fill:none;stroke:white;stroke-width:10.12px;"/>
    <path d="M1655.32,1354.64C1654.03,1362.39 1654.6,1361.85 1653.96,1369.53C1652.47,1359.09 1650.98,1348.65 1649.49,1338.22C1659.18,1343.44 1668.87,1348.65 1678.56,1353.87C1671.06,1358.73 1673.36,1362.72 1655.08,1367.29" style="fill:none;stroke:white;stroke-width:10.12px;"/>
    <path d="M1740.49,1370.92C1739.32,1379.16 1738.04,1378.8 1717.69,1472.39" style="fill:none;stroke:white;stroke-width:10.12px;"/>
    <path d="M1781.59,1376.55C1777.5,1375.54 1773.91,1394.68 1773.6,1396.36C1763.44,1450.52 1787.34,1457.34 1790.37,1460.09" style="fill:none;stroke:white;stroke-width:10.12px;"/>
    <path d="M1822.99,1383.36C1818.24,1400.5 1827.26,1436.59 1828.38,1441.08" style="fill:none;stroke:white;stroke-width:10.12px;"/>
    <path d="M1822.39,1382.62C1818.01,1384.58 1836.44,1381.74 1855.22,1393.01" style="fill:none;stroke:white;stroke-width:10.12px;"/>
    <path d="M1824.91,1408.53C1828.22,1408.87 1837.33,1409.78 1866.4,1406.42" style="fill:none;stroke:white;stroke-width:10.12px;"/>
    <path d="M1892.13,1383.81C1887.86,1410.08 1885,1408.99 1882.05,1435.49" style="fill:none;stroke:white;stroke-width:10.12px;"/>
    <path d="M1895.39,1386.18C1899.54,1405.99 1908.38,1402.76 1916.71,1444.44" style="fill:none;stroke:white;stroke-width:10.12px;"/>
    <path d="M1887.64,1420.96C1897.7,1420.59 1907.77,1420.21 1917.83,1419.84" style="fill:none;stroke:white;stroke-width:10.12px;"/>
    <path d="M1831.59,1358.04C1851.22,1359.74 1851.11,1356.03 1885.41,1359.46C1892.29,1360.15 1892.65,1358.42 1892.11,1358.35C1878.35,1356.38 1881.43,1362.19 1882.05,1362.82C1884.44,1365.2 1883.15,1361.49 1880.88,1334.82C1894.43,1348.36 1893.62,1348.45 1907.89,1360.58C1902.63,1360.21 1897.37,1359.84 1892.11,1359.46" style="fill:none;stroke:white;stroke-width:10.12px;"/>
    <path d="M1955.48,1414.9C1953.69,1416.01 1954.85,1413.37 1954.73,1413.13" style="fill:none;stroke:white;stroke-width:10.12px;"/>
    <path d="M2002.22,1372.55C2001.97,1378.52 2001.42,1391.42 2010.63,1446.67" style="fill:none;stroke:white;stroke-width:10.12px;"/>
    <path d="M2008.4,1378.47C2034.63,1365.35 2036.03,1375.14 2036.35,1377.35C2038.96,1395.62 2011.52,1409.33 2008.4,1410.9" style="fill:none;stroke:white;stroke-width:10.12px;"/>
    <path d="M2065.72,1373.89C2064.65,1393.88 2053.69,1425.1 2049.77,1438.85" style="fill:none;stroke:white;stroke-width:10.12px;"/>
    <path d="M2067.66,1387.42C2077.9,1397.66 2071.57,1441.22 2088.9,1445.56" style="fill:none;stroke:white;stroke-width:10.12px;"/>
    <path d="M2057.56,1418.6C2072.02,1419.74 2071.54,1418.24 2085.55,1416.49" style="fill:none;stroke:white;stroke-width:10.12px;"/>
    <path d="M2003.92,1344.93C2008.93,1341.59 2102.1,1343.1 2088.9,1340.46C2079.76,1338.63 2082.26,1343.46 2079.27,1352.06C2075.77,1339.62 2072.27,1327.18 2068.77,1314.74C2071.82,1318.51 2071.32,1324.39 2074.36,1328.16C2076.41,1330.68 2104.9,1346.18 2096.73,1351.64C2090.87,1355.54 2078.27,1356.02 2077.72,1356.11" style="fill:none;stroke:white;stroke-width:10.12px;"/>
    <path d="M2119.14,1369.15C2145.07,1405.54 2120.1,1461.73 2116.85,1469.04" style="fill:none;stroke:white;stroke-width:10.12px;"/>
</svg>
