<?xml version="1.0" encoding="UTF-8" standalone="no"?>
<!DOCTYPE svg PUBLIC "-//W3C//DTD SVG 1.1//EN" "http://www.w3.org/Graphics/SVG/1.1/DTD/svg11.dtd">
<svg width="100%" height="100%" viewBox="0 0 2481 1749" version="1.1" xmlns="http://www.w3.org/2000/svg" xmlns:xlink="http://www.w3.org/1999/xlink" xml:space="preserve" xmlns:serif="http://www.serif.com/" style="fill-rule:evenodd;clip-rule:evenodd;stroke-linecap:round;stroke-linejoin:round;stroke-miterlimit:1.5;">
    <g transform="matrix(1,0,0,1,34.9124,-336.168)">
        <path d="M168.64,756.334C168.37,761.989 168.976,761.729 189.78,849.823C190.284,842.932 185.835,773.737 207.469,762.92" style="fill:none;stroke:white;stroke-width:8.68px;"/>
    </g>
    <g transform="matrix(1,0,0,1,34.9124,-336.168)">
        <path d="M257.861,756.621C288.626,765.411 286.453,811.035 287.813,841.989C270.503,807.043 254.312,790.097 238.964,825.91C234.715,835.824 239.297,857.22 281.482,833.783" style="fill:none;stroke:white;stroke-width:8.68px;"/>
    </g>
    <g transform="matrix(1,0,0,1,34.9124,-336.168)">
        <path d="M312.977,761.345C313.649,767.73 318.99,818.465 335.024,838.508C349.016,855.997 353.558,786.304 353.87,781.512C354.64,786.134 362.685,834.4 372.818,836.933C382.239,839.288 388.064,784.922 388.565,780.242" style="fill:none;stroke:white;stroke-width:8.68px;"/>
    </g>
    <g transform="matrix(1,0,0,1,34.9124,-336.168)">
        <path d="M434.453,723.593C435.326,731.685 433.083,731.749 442.29,825.031C436.896,772.927 437.962,773.596 435.774,721.419C474.247,809.922 492.979,808.982 478.326,835.358C461.518,865.611 446.623,840.786 445.256,838.508" style="fill:none;stroke:white;stroke-width:8.68px;"/>
    </g>
    <g transform="matrix(1,0,0,1,34.9124,-336.168)">
        <path d="M514.545,769.219C544.905,776.809 542.597,802.55 555.488,846.381C545.851,815.862 543.246,796.239 519.269,818.036C473.077,860.029 534.664,837.634 536.591,836.933" style="fill:none;stroke:white;stroke-width:8.68px;"/>
    </g>
    <g transform="matrix(1,0,0,1,34.9124,-336.168)">
        <path d="M574.047,732.351C574.16,739.916 574.272,747.481 574.385,755.046L574.385,764.494C579.346,833.939 570.314,841.35 590.133,847.956" style="fill:none;stroke:white;stroke-width:8.68px;"/>
    </g>
    <g transform="matrix(1,0,0,1,34.9124,-336.168)">
        <path d="M555.657,772.183C565.212,752.586 600.737,757.41 610.605,756.621" style="fill:none;stroke:white;stroke-width:8.68px;"/>
    </g>
    <g transform="matrix(1,0,0,1,34.9124,-336.168)">
        <path d="M625.663,806.592C621.667,808.489 628.309,784.121 645.249,786.541C662.396,788.991 678.336,852.747 679.894,858.979L679.894,860.554C671.505,844.976 675.115,837.204 657.847,840.082C654.932,840.568 655.563,841.554 626.794,860.09C642.394,856.045 657.994,852.001 673.595,847.956" style="fill:none;stroke:white;stroke-width:8.68px;"/>
    </g>
    <g transform="matrix(1,0,0,1,34.9124,-336.168)">
        <path d="M306.771,487.523C313.837,591.3 313.626,591.092 314.552,597.571" style="fill:none;stroke:white;stroke-width:8.68px;"/>
    </g>
    <g transform="matrix(1,0,0,1,34.9124,-336.168)">
        <path d="M313.04,480.849C322.904,486.49 403.986,479.356 442.107,492.063" style="fill:none;stroke:white;stroke-width:8.68px;"/>
    </g>
    <g transform="matrix(1,0,0,1,34.9124,-336.168)">
        <path d="M331.221,590.543C335.752,606.52 404.419,580.428 461.004,577.099" style="fill:none;stroke:white;stroke-width:8.68px;"/>
    </g>
    <g transform="matrix(1,0,0,1,34.9124,-336.168)">
        <path d="M450.962,470.839C450.482,471.978 450.672,471.364 454.705,580.249" style="fill:none;stroke:white;stroke-width:8.68px;"/>
    </g>
    <g transform="matrix(1,0,0,1,34.9124,-336.168)">
        <path d="M120.995,694.814L120.858,696.78L120.858,863.704" style="fill:none;stroke:white;stroke-width:8.68px;"/>
    </g>
    <g transform="matrix(1,0,0,1,34.9124,-336.168)">
        <path d="M122.04,692.52C105.545,686.045 146.452,702.102 342.897,709.378C353.235,709.761 670.188,697.937 706.664,712.528" style="fill:none;stroke:white;stroke-width:8.68px;"/>
    </g>
    <g transform="matrix(1,0,0,1,34.9124,-336.168)">
        <path d="M123.293,869.781C336.333,888.517 335.462,890.319 353.921,888.9C535.905,874.901 535.429,873.152 717.688,873.152" style="fill:none;stroke:white;stroke-width:8.68px;"/>
    </g>
    <g transform="matrix(1,0,0,1,34.9124,-336.168)">
        <path d="M710.296,723.176L709.814,723.551L709.814,791.265C710.339,813.837 710.864,836.408 711.389,858.979" style="fill:none;stroke:white;stroke-width:8.68px;"/>
    </g>
    <g transform="matrix(1,0,0,1,3.56269,139.594)">
        <path d="M348.565,659.57C340.168,682.399 354.021,779.371 355.495,789.69" style="fill:none;stroke:white;stroke-width:8.68px;"/>
    </g>
    <g transform="matrix(1,0,0,1,3.56269,139.594)">
        <path d="M344.804,658.736C391.297,659.236 504.315,649.382 536.591,655.837" style="fill:none;stroke:white;stroke-width:8.68px;"/>
    </g>
    <g transform="matrix(1,0,0,1,3.56269,139.594)">
        <path d="M361.522,783.861C418.823,783.232 434.506,776.403 538.166,780.242" style="fill:none;stroke:white;stroke-width:8.68px;"/>
    </g>
    <g transform="matrix(1,0,0,1,3.56269,139.594)">
        <path d="M535.017,654.262C543.56,714.067 528.801,713.607 533.442,773.943" style="fill:none;stroke:white;stroke-width:8.68px;"/>
    </g>
    <path d="M397.256,227.47C413.513,194.429 413.336,194.436 413.761,194.436" style="fill:none;stroke:white;stroke-width:8.68px;"/>
    <path d="M400.391,227.47C412.57,226.987 424.75,226.503 436.93,226.019C426.097,193.709 424.305,193.34 426.359,191.286" style="fill:none;stroke:white;stroke-width:8.68px;"/>
    <path d="M422.333,191.601C437.369,190.425 437.15,164.214 429.509,162.941C401.489,158.271 406.937,185.51 407.462,188.137" style="fill:none;stroke:white;stroke-width:8.68px;"/>
    <path d="M415.228,212.247C414.921,212.145 413.761,211.758 412.186,214.907C411.598,216.084 413.131,213.018 416.911,199.16C416.143,201.309 404.236,234.649 413.761,227.505C414.378,227.043 414.09,227.351 420.06,205.459L426.359,214.907L424.784,202.309" style="fill:none;stroke:white;stroke-width:8.68px;"/>
    <path d="M423.378,180.757C422.465,181.323 422.106,180.426 426.359,167.665C418.189,182.644 417.166,182.348 418.485,184.987" style="fill:none;stroke:white;stroke-width:8.68px;"/>
    <path d="M369.254,131.958C368.136,129.947 373.15,82.11 401.163,71.605C450.205,53.214 445.132,150.139 445.256,153.492" style="fill:none;stroke:white;stroke-width:8.68px;"/>
    <g transform="matrix(1,0,0,1,3.56269,139.594)">
        <path d="M410.612,646.388C411.418,640.742 418.485,591.272 459.429,594.422C479.549,595.969 469.029,629.37 479.901,651.113" style="fill:none;stroke:white;stroke-width:8.68px;"/>
    </g>
    <g transform="matrix(1,0,0,1,3.56269,139.594)">
        <path d="M421.635,742.448C431.314,726.317 431.875,727.085 438.957,709.378" style="fill:none;stroke:white;stroke-width:8.68px;"/>
    </g>
    <g transform="matrix(1,0,0,1,3.56269,139.594)">
        <path d="M432.658,709.378C420.483,691.115 429.425,673.905 443.681,681.033C461.397,689.891 449.681,707.465 448.406,709.378" style="fill:none;stroke:white;stroke-width:8.68px;"/>
    </g>
    <g transform="matrix(1,0,0,1,3.56269,139.594)">
        <path d="M449.917,700.236C444.845,699.209 456.472,733.311 457.854,739.298C438.982,743.342 436.824,752.913 423.21,739.298C421.604,737.693 438.957,746.805 438.957,715.677L440.532,742.448L445.256,714.102C445.256,716.423 436.465,728.833 453.13,732.999" style="fill:none;stroke:white;stroke-width:8.68px;"/>
    </g>
    <g transform="matrix(1,0,0,1,3.56269,139.594)">
        <path d="M440.532,695.206C438.957,690.481 437.382,685.757 435.808,681.033C435.808,700.376 431.292,720.877 442.107,704.654C443.956,701.88 442.897,702.3 435.808,681.033C438.957,686.282 442.107,691.531 445.256,696.78" style="fill:none;stroke:white;stroke-width:8.68px;"/>
    </g>
    <g transform="matrix(1,0,0,1,3.56269,139.594)">
        <path d="M152.353,825.91C163.77,829.715 164.376,825.053 301.954,841.657C402.021,853.734 401.195,831.16 501.947,835.358C601.641,839.512 600.834,837.104 700.365,835.358L708.239,833.783C735.274,832.36 735.09,831.835 761.78,838.508" style="fill:none;stroke:white;stroke-width:8.68px;"/>
    </g>
    <g transform="matrix(1,0,0,1,3.56269,139.594)">
        <path d="M160.699,834.954C152.849,893.967 166.315,982.159 168.247,994.816C198.609,992.059 198.599,979.82 275.183,994.408C405.987,1019.32 680.037,989.807 785.402,1003.86C754.946,942.944 779.304,873.991 774.378,814.886" style="fill:none;stroke:white;stroke-width:8.68px;"/>
    </g>
    <g transform="matrix(1,0,0,1,3.56269,139.594)">
        <path d="M355.495,888.9C334.191,893.16 316.044,920.527 336.598,926.694C345.111,929.247 383.873,925.054 374.392,944.016C365.394,962.013 346.892,955.846 344.472,955.039" style="fill:none;stroke:white;stroke-width:8.68px;"/>
    </g>
    <g transform="matrix(1,0,0,1,3.56269,139.594)">
        <path d="M411.048,872.075C403.965,874.203 413.761,877.325 413.761,964.487C411.6,958.313 389.418,894.936 391.715,885.75C392.54,882.448 394.302,886.394 434.233,884.175" style="fill:none;stroke:white;stroke-width:8.68px;"/>
    </g>
    <g transform="matrix(1,0,0,1,3.56269,139.594)">
        <path d="M465.172,918.163C460.275,906.186 467.273,888.097 472.027,890.474C479.781,894.352 489.399,949.191 490.318,954.433C467.183,931.298 451.754,919.401 445.256,951.889C440.074,977.8 458.081,961.608 506.671,951.889" style="fill:none;stroke:white;stroke-width:8.68px;"/>
    </g>
    <g transform="matrix(1,0,0,1,3.56269,139.594)">
        <path d="M528.718,879.451C525.831,896.769 521.311,987.039 555.488,947.165" style="fill:none;stroke:white;stroke-width:8.68px;"/>
    </g>
    <g transform="matrix(1,0,0,1,3.56269,139.594)">
        <path d="M523.994,898.348C534.492,896.248 544.99,894.149 555.488,892.049" style="fill:none;stroke:white;stroke-width:8.68px;"/>
    </g>
    <g transform="matrix(1,0,0,1,3.56269,139.594)">
        <path d="M629.633,890.218C606.413,890.752 609.626,897.506 592.297,913.165C596.164,914.4 637.735,927.685 635.801,939.291C633.011,956.029 604.397,960.798 601.156,961.338" style="fill:none;stroke:white;stroke-width:8.68px;"/>
    </g>
    <g transform="matrix(1,0,0,1,3.56269,139.594)">
        <path d="M365.492,1126.08C365.364,1134.32 365.166,1147.07 368.093,1229.05" style="fill:none;stroke:white;stroke-width:8.68px;"/>
    </g>
    <g transform="matrix(1,0,0,1,3.56269,139.594)">
        <path d="M356.506,1126.08C350.4,1129.75 360.282,1123.81 445.256,1118.81C542.955,1113.07 542.742,1115.19 550.764,1112.51" style="fill:none;stroke:white;stroke-width:8.68px;"/>
    </g>
    <g transform="matrix(1,0,0,1,3.56269,139.594)">
        <path d="M368.093,1236.92C526.371,1251.31 560.857,1219.31 568.086,1233.77" style="fill:none;stroke:white;stroke-width:8.68px;"/>
    </g>
    <g transform="matrix(1,0,0,1,3.56269,139.594)">
        <path d="M541.656,1122.33C541.259,1158.64 543.3,1234.24 547.615,1255.82" style="fill:none;stroke:white;stroke-width:8.68px;"/>
    </g>
    <g transform="matrix(1,0,0,1,3.56269,139.594)">
        <path d="M416.899,1107.1C410.193,1096.54 410.317,1042.52 449.98,1057.4C483.692,1070.04 474.301,1079.09 483.05,1114.09" style="fill:none;stroke:white;stroke-width:8.68px;"/>
    </g>
    <g transform="matrix(1,0,0,1,3.56269,139.594)">
        <path d="M429.509,1202.27C433.877,1189.17 435.568,1190.63 438.957,1177.08C441.317,1167.64 439.534,1179.1 442.107,1188.1C431.083,1164.48 421.322,1146.31 419.402,1142.74C437.269,1138.49 458.253,1132.65 459.429,1145.58C461.369,1166.92 456.72,1165.55 448.45,1184.81L469.086,1214.32C448.677,1199.46 447.352,1201 423.458,1207.75C428.536,1197.23 433.613,1186.71 438.69,1176.19C441.929,1186.98 445.167,1197.78 448.406,1208.57L446.831,1177.08L446.831,1175.5C447.895,1182.42 437.65,1186.69 453.13,1195.98" style="fill:none;stroke:white;stroke-width:8.68px;"/>
    </g>
    <g transform="matrix(1,0,0,1,3.56269,139.594)">
        <path d="M442.107,1161.33C451.95,1146.57 444.045,1137.78 443.681,1137.71C421.116,1133.2 435.266,1147.65 445.256,1167.63C445.256,1150.6 453.49,1139.98 437.382,1144.01C436.864,1144.14 437.382,1144.01 432.658,1148.73" style="fill:none;stroke:white;stroke-width:8.68px;"/>
    </g>
    <g transform="matrix(1,0,0,1,3.56269,139.594)">
        <path d="M177.208,1297.71C179.137,1319.08 184.834,1433.02 185.423,1444.79" style="fill:none;stroke:white;stroke-width:8.68px;"/>
    </g>
    <g transform="matrix(1,0,0,1,3.56269,139.594)">
        <path d="M179.925,1297.5C184.668,1312.26 422.48,1286.75 500.372,1290.46C697.42,1299.84 736.1,1283.75 769.654,1290.46L769.654,1468.41L766.505,1468.41L757.056,1462.11" style="fill:none;stroke:white;stroke-width:8.68px;"/>
    </g>
    <g transform="matrix(1,0,0,1,3.56269,139.594)">
        <path d="M206.673,1444.32C124.879,1460.67 561.908,1423.75 649.973,1440.06C673.624,1444.44 672.14,1449.33 711.389,1454.23C745.44,1458.49 745.823,1448.91 766.505,1455.81" style="fill:none;stroke:white;stroke-width:8.68px;"/>
    </g>
    <g transform="matrix(1,0,0,1,3.56269,139.594)">
        <path d="M288.172,1335.46C287.23,1371.23 300.245,1393.23 303.226,1403.5C303.902,1387.76 296.328,1344.58 322.426,1340.85" style="fill:none;stroke:white;stroke-width:8.68px;"/>
    </g>
    <g transform="matrix(1,0,0,1,3.56269,139.594)">
        <path d="M331.874,1384.94C345.318,1381.58 355.953,1343.3 357.07,1339.28C341.636,1365 333.355,1368.03 352.346,1391.24C368.823,1411.38 380.925,1389.92 383.841,1386.52" style="fill:none;stroke:white;stroke-width:8.68px;"/>
    </g>
    <g transform="matrix(1,0,0,1,3.56269,139.594)">
        <path d="M407.462,1345.58C411.075,1365.29 414.687,1385.01 418.3,1404.72C424.46,1383.45 430.62,1362.18 436.78,1340.91C441.492,1371.52 436.425,1399.52 462.578,1406.99" style="fill:none;stroke:white;stroke-width:8.68px;"/>
    </g>
    <g transform="matrix(1,0,0,1,3.56269,139.594)">
        <path d="M490.924,1384.94C492.105,1382.29 509.821,1342.43 487.774,1348.73C482.387,1350.27 469.108,1381.19 487.774,1386.52C502.717,1390.79 505.283,1319.35 506.671,1307.78C510.377,1378.19 504.719,1379.56 517.695,1402.27" style="fill:none;stroke:white;stroke-width:8.68px;"/>
    </g>
    <g transform="matrix(1,0,0,1,3.56269,139.594)">
        <path d="M545.626,1384.05C517.616,1405.73 566.065,1374.39 560.213,1339.28C555.398,1310.39 529.034,1430.66 586.983,1397.54" style="fill:none;stroke:white;stroke-width:8.68px;"/>
    </g>
    <g transform="matrix(1,0,0,1,3.56269,139.594)">
        <path d="M602.885,1344.84C594.87,1348.25 611.566,1394.57 613.053,1398.7C616.468,1382.56 622.073,1332.6 637.375,1337.7" style="fill:none;stroke:white;stroke-width:8.68px;"/>
    </g>
    <g transform="matrix(1,0,0,1,3.56269,139.594)">
        <path d="M681.468,1337.7C678.254,1337.06 632.928,1337.55 679.894,1378.65C705.967,1401.46 688.031,1411.96 653.123,1414.87" style="fill:none;stroke:white;stroke-width:8.68px;"/>
    </g>
    <g transform="matrix(1,0,0,1,-14.9843,146.117)">
        <path d="M124.129,595.548C118.406,597.061 135.811,719.744 127.157,884.175C119.432,1030.94 117.708,1030.15 117.708,1465.26L117.708,1474.71C132.642,1497.11 347.839,1523.44 350.771,1523.52C389.939,1524.61 826.578,1536.74 840.518,1517.22C879.352,1462.86 839.474,1170.74 856.265,1044.8C861.014,1009.18 879.039,874 873.588,595.996C873.54,593.563 860.637,574.209 859.415,572.375C857.533,569.553 853.358,563.29 820.046,556.628C799.043,552.427 560.098,548.973 476.751,559.777C311.515,581.197 234.812,556.198 138.18,575.525C138.18,575.525 132.385,572.627 131.881,572.375" style="fill:none;stroke:white;stroke-width:8.68px;"/>
    </g>
    <path d="M96.963,51.878C97.127,52.375 94.786,52.219 89.363,214.907C86.334,305.771 88.437,305.389 92.553,568.568C163.136,606.906 316.307,592.635 473.602,603.87C553.916,609.607 786.281,602.806 788.551,595.996C815.433,515.351 780.083,258.338 782.252,180.263C784.415,102.385 773.435,53.422 768.079,52.708C763.203,52.058 763.216,53.598 706.664,49.559C706.405,49.54 668.658,38.669 665.721,38.536C545.489,33.07 546.022,32.009 426.359,14.914C419.621,13.952 171.546,9.64 116.134,25.938C89.708,33.71 89.707,31.012 79.915,32.237" style="fill:none;stroke:white;stroke-width:8.68px;"/>
    <path d="M863.682,996.992C842.925,1007.49 1012.95,993.839 1025.88,992.8C1034.42,1122.64 1041.41,1121.74 1035.79,1251.09C1032.13,1335.09 980.607,1296.01 864.139,1304.63" style="fill:none;stroke:white;stroke-width:8.68px;"/>
    <path d="M891.893,1130.46C891.695,1137.97 891.169,1157.84 894.059,1224.32" style="fill:none;stroke:white;stroke-width:8.68px;"/>
    <path d="M887.087,1132.13C879.026,1129.8 891.785,1132.29 991.837,1126.61C983.836,1229.62 983.831,1229.64 981.965,1238.43C898.646,1240.1 893.628,1241.36 886.186,1243.22" style="fill:none;stroke:white;stroke-width:8.68px;"/>
    <path d="M923.98,1216.45C933.984,1196.44 947.749,1181.58 941.302,1191.25C938.857,1194.92 904.685,1144.98 946.026,1148.73C951.9,1149.27 938.702,1194.13 944.451,1191.25C946.828,1190.06 947.563,1191.17 961.774,1219.6" style="fill:none;stroke:white;stroke-width:8.68px;"/>
    <path d="M938.152,1211.72C954.433,1203.58 942.436,1184.19 941.302,1194.4C938.619,1218.55 955.248,1218.94 955.475,1216.45C955.663,1214.38 957.049,1199.12 949.176,1191.25" style="fill:none;stroke:white;stroke-width:8.68px;"/>
    <path d="M933.428,1177.08C933.753,1175.45 938.327,1152.58 930.279,1156.61C928.885,1157.3 913.744,1164.87 935.003,1175.5" style="fill:none;stroke:white;stroke-width:8.68px;"/>
    <path d="M903.178,1131.29C902.34,1125.71 892.971,1063.31 931.853,1066.85C953.539,1068.82 958.169,1124.38 958.624,1129.84" style="fill:none;stroke:white;stroke-width:8.68px;"/>
    <g transform="matrix(1,0,0,1,-7.89162,181.978)">
        <path d="M1369.6,258.335C1396.52,263.969 1375.52,178.556 1349.16,210.183C1336.28,225.645 1345.67,255.638 1361.76,257.426C1390.21,260.587 1386.58,211.863 1386.96,203.884C1391.19,239.844 1390.25,241.368 1413.73,260.575" style="fill:none;stroke:white;stroke-width:8.68px;"/>
    </g>
    <g transform="matrix(1,0,0,1,-7.89162,181.978)">
        <path d="M1454.67,247.977C1490.36,236.082 1431.72,179.36 1424.75,221.206C1420.19,248.536 1447.75,267.37 1456.24,260.575C1474.71,245.8 1479.39,140.486 1479.87,129.871C1479.46,140.709 1475.75,240.998 1486.16,265.299" style="fill:none;stroke:white;stroke-width:8.68px;"/>
    </g>
    <g transform="matrix(1,0,0,1,-7.89162,181.978)">
        <path d="M1523.62,253.955C1551.65,255.73 1531.09,181.459 1508.21,218.057C1490.14,246.969 1512.09,272.306 1531.83,255.851C1547.58,242.728 1547.58,141.477 1547.58,131.446C1547.5,132.561 1531.2,217.349 1558.6,265.299" style="fill:none;stroke:white;stroke-width:8.68px;"/>
    </g>
    <g transform="matrix(1,0,0,1,-7.89162,181.978)">
        <path d="M1631.04,142.469C1622.7,159.148 1625.3,182.915 1632.62,254.276C1630.11,196.528 1630.62,197.392 1629.45,140.333C1671.39,238.194 1702.55,244.272 1671.99,263.725C1627.77,291.863 1611.59,264.901 1609,260.575" style="fill:none;stroke:white;stroke-width:8.68px;"/>
    </g>
    <g transform="matrix(1,0,0,1,-7.89162,181.978)">
        <path d="M1728.68,205.459C1776.63,179.303 1766.82,236.67 1768.26,274.057C1754.28,254.523 1757.71,245.546 1733.4,247.977C1725.22,248.795 1716.85,260.253 1725.53,263.725C1750.74,273.812 1750.82,266.191 1777.49,260.575" style="fill:none;stroke:white;stroke-width:8.68px;"/>
    </g>
    <g transform="matrix(1,0,0,1,-7.89162,181.978)">
        <path d="M1808.65,158.651C1811.73,183.715 1778.64,311.949 1837.33,270.024" style="fill:none;stroke:white;stroke-width:8.68px;"/>
    </g>
    <g transform="matrix(1,0,0,1,-7.89162,181.978)">
        <path d="M1794.82,192.861C1820.93,187.887 1820.22,185.923 1846.78,188.137" style="fill:none;stroke:white;stroke-width:8.68px;"/>
    </g>
    <g transform="matrix(1,0,0,1,-7.89162,181.978)">
        <path d="M1890.88,214.907C1924.44,186.134 1923.18,246.149 1925.52,295.219C1911.44,264.241 1916.21,249.476 1898.75,259C1880.56,268.924 1881.91,279.701 1881.43,282.621" style="fill:none;stroke:white;stroke-width:8.68px;"/>
    </g>
    <g transform="matrix(1,0,0,1,-7.89162,181.978)">
        <path d="M1345.57,422.249C1346.29,482.564 1349.12,481.882 1352.31,542.455" style="fill:none;stroke:white;stroke-width:8.68px;"/>
    </g>
    <g transform="matrix(1,0,0,1,-7.89162,181.978)">
        <path d="M1338.05,444.563C1333.02,424.119 1368.53,405.889 1379.08,422.774C1388.77,438.271 1384.78,471.742 1353.89,479.465" style="fill:none;stroke:white;stroke-width:8.68px;"/>
    </g>
    <g transform="matrix(1,0,0,1,-7.89162,181.978)">
        <path d="M1407.43,408.601C1401.92,425.117 1421.55,467.566 1422.76,470.824C1426.05,445.156 1421.69,404.587 1457.82,408.601" style="fill:none;stroke:white;stroke-width:8.68px;"/>
    </g>
    <g transform="matrix(1,0,0,1,-7.89162,181.978)">
        <path d="M1494.04,460.568C1537.79,453.276 1488.23,382.237 1471.99,421.199C1454.56,463.034 1484.94,480.186 1514.51,446.395" style="fill:none;stroke:white;stroke-width:8.68px;"/>
    </g>
    <g transform="matrix(1,0,0,1,-7.89162,181.978)">
        <path d="M1574.35,407.027C1555.49,400.74 1543.69,460.994 1575.92,465.292C1634.02,473.038 1648.54,395.927 1626.32,405.452C1617.58,409.195 1590.64,501.783 1670.41,452.694" style="fill:none;stroke:white;stroke-width:8.68px;"/>
    </g>
    <g transform="matrix(1,0,0,1,-7.89162,181.978)">
        <path d="M1717.65,399.153C1701.9,407.031 1703.45,407.949 1689.31,418.05C1694.66,420.482 1750.18,441.952 1736.55,458.993C1735.61,460.171 1704.96,477.606 1700.33,463.718" style="fill:none;stroke:white;stroke-width:8.68px;"/>
    </g>
    <g transform="matrix(1,0,0,1,-7.89162,181.978)">
        <path d="M1797.58,399.726C1707.62,397.771 1802.5,438.529 1807.41,446.395C1814.12,457.127 1774.2,479.319 1761.75,466.867" style="fill:none;stroke:white;stroke-width:8.68px;"/>
    </g>
    <g transform="matrix(1,0,0,1,-7.89162,181.978)">
        <path d="M1866.54,375.744C1865.05,380.836 1865.64,380.817 1864.09,469.178C1865.61,417.121 1865.96,417.76 1860.95,366.083C1862.12,373.87 1859.79,381.918 1860.95,389.704C1861.46,393.102 1924.27,447.729 1916.07,466.867C1915.12,469.083 1886.55,494.032 1864.1,471.591" style="fill:none;stroke:white;stroke-width:8.68px;"/>
    </g>
    <g transform="matrix(1,0,0,1,-7.89162,181.978)">
        <path d="M1938.12,416.475C1974.99,391.894 1972.51,474.485 1972.76,479.465C1955.54,462.245 1954.03,462.406 1930.24,466.867C1948.28,472.279 1949.78,483.388 1993.23,470.017" style="fill:none;stroke:white;stroke-width:8.68px;"/>
    </g>
    <g transform="matrix(1,0,0,1,-7.89162,181.978)">
        <path d="M2023.27,380.123C2017.33,386.096 2016.88,456.439 2020,463.718C2024.89,475.114 2050.38,471.929 2053.07,471.591" style="fill:none;stroke:white;stroke-width:8.68px;"/>
    </g>
    <g transform="matrix(1,0,0,1,-7.89162,181.978)">
        <path d="M2002.68,407.027L2038.9,407.027" style="fill:none;stroke:white;stroke-width:8.68px;"/>
    </g>
    <g transform="matrix(1,0,0,1,-7.89162,181.978)">
        <path d="M2098.74,421.199C2135.05,399.411 2132.68,449.437 2130.24,498.362C2131.36,481.583 2137.22,473.477 2120.79,474.741C2119.26,474.858 2054.78,497.828 2117.64,493.638" style="fill:none;stroke:white;stroke-width:8.68px;"/>
    </g>
    <g transform="matrix(1,0,0,1,-7.89162,181.978)">
        <path d="M1351.21,683.135C1379.38,677.569 1376.48,598.196 1342.86,624.342C1317.16,644.333 1335.43,689.113 1368.06,660.561C1390.84,640.631 1374.6,606.892 1372.78,619.618C1365.75,668.877 1449.94,753.471 1377.51,753.471C1365.33,753.471 1349.81,735.469 1358.61,714.102C1376.67,670.244 1384.76,676.911 1421.6,647.963" style="fill:none;stroke:white;stroke-width:8.68px;"/>
    </g>
    <g transform="matrix(1,0,0,1,-7.89162,181.978)">
        <path d="M1429.79,656.651C1437.9,658.828 1473.41,592.018 1453.1,603.87C1438.12,612.606 1423.98,650.823 1437.35,655.837C1465.24,666.298 1500.17,648.834 1505.06,646.388" style="fill:none;stroke:white;stroke-width:8.68px;"/>
    </g>
    <g transform="matrix(1,0,0,1,-7.89162,181.978)">
        <path d="M1514.51,529.857C1514.02,540.062 1509.21,641.172 1520.81,657.412C1532.35,673.57 1562.29,641.327 1564.9,638.515" style="fill:none;stroke:white;stroke-width:8.68px;"/>
    </g>
    <g transform="matrix(1,0,0,1,-7.89162,181.978)">
        <path d="M1500.63,582.618C1499.06,578.35 1502.02,577.64 1557.03,575.525" style="fill:none;stroke:white;stroke-width:8.68px;"/>
    </g>
    <g transform="matrix(1,0,0,1,-7.89162,181.978)">
        <path d="M1613.72,540.88C1615.28,551.275 1632.85,668.435 1645.21,668.435C1652.26,668.435 1653.33,642.719 1670.41,548.754" style="fill:none;stroke:white;stroke-width:8.68px;"/>
    </g>
    <g transform="matrix(1,0,0,1,-7.89162,181.978)">
        <path d="M1712.95,605.349C1711.75,642.111 1704.3,642.926 1717.65,676.309" style="fill:none;stroke:white;stroke-width:8.68px;"/>
    </g>
    <g transform="matrix(1,0,0,1,-7.89162,181.978)">
        <path d="M1718.59,573.234C1714.77,574.322 1715.29,573.163 1711.35,572.375" style="fill:none;stroke:white;stroke-width:8.68px;"/>
    </g>
    <g transform="matrix(1,0,0,1,-7.89162,181.978)">
        <path d="M1774.34,663.711C1811.94,654.311 1777.06,577.957 1753.87,624.342C1732.02,668.05 1775.48,680.634 1791.67,662.136C1811.32,639.671 1802.49,551.99 1801.11,531.432C1805.61,593.266 1804.63,638.151 1821.59,676.309" style="fill:none;stroke:white;stroke-width:8.68px;"/>
    </g>
    <g transform="matrix(1,0,0,1,-7.89162,181.978)">
        <path d="M1873.55,662.136C1914.62,629.279 1897.06,601.945 1887.73,605.445C1875.4,610.067 1835.91,686.635 1930.24,673.159" style="fill:none;stroke:white;stroke-width:8.68px;"/>
    </g>
    <g transform="matrix(1,0,0,1,-7.89162,181.978)">
        <path d="M1980.64,657.412C2010.57,638.365 2016.42,621.572 1982.21,610.169C1963.29,603.863 1927.81,647.745 1963.31,666.86C1996.99,684.995 2000.73,651.323 2001.11,647.963" style="fill:none;stroke:white;stroke-width:8.68px;"/>
    </g>
    <g transform="matrix(1,0,0,1,-7.89162,181.978)">
        <path d="M1361.76,865.278C1387.85,856.582 1372.73,795.267 1341.29,830.634C1302.99,873.715 1363.56,874.635 1377.51,849.531C1386.61,833.149 1372.28,828.485 1371.21,830.634C1367.27,838.502 1448.76,977.085 1380.66,977.085C1369.23,977.085 1332.41,870.523 1424.75,862.129" style="fill:none;stroke:white;stroke-width:8.68px;"/>
    </g>
    <g transform="matrix(1,0,0,1,-7.89162,181.978)">
        <path d="M1418.5,855.6C1447.07,856.651 1461.21,789.571 1432.62,803.863C1394.94,822.704 1430.15,900.41 1479.87,858.979" style="fill:none;stroke:white;stroke-width:8.68px;"/>
    </g>
    <g transform="matrix(1,0,0,1,-7.89162,181.978)">
        <path d="M1498.75,745.072C1495.47,749.482 1493.68,751.889 1490.89,813.312C1487.63,884.978 1524.1,858.39 1534.98,855.83" style="fill:none;stroke:white;stroke-width:8.68px;"/>
    </g>
    <g transform="matrix(1,0,0,1,-7.89162,181.978)">
        <path d="M1484.33,793.037C1481.01,792.539 1481.96,781.005 1525.53,784.966" style="fill:none;stroke:white;stroke-width:8.68px;"/>
    </g>
    <g transform="matrix(1,0,0,1,-7.89162,181.978)">
        <path d="M1626.64,774.268C1626.3,772.288 1627.35,772.565 1634.19,750.322C1629.43,752.814 1575.24,781.2 1582.22,792.84C1583.78,795.426 1691.64,843.557 1645.21,862.129C1606.09,877.778 1601.73,851.611 1601.12,847.956" style="fill:none;stroke:white;stroke-width:8.68px;"/>
    </g>
    <g transform="matrix(1,0,0,1,-7.89162,181.978)">
        <path d="M1683.01,739.298C1690.13,817.687 1678.66,852.981 1686.16,858.979C1693.69,865.004 1721.24,848.052 1723.95,846.381" style="fill:none;stroke:white;stroke-width:8.68px;"/>
    </g>
    <g transform="matrix(1,0,0,1,-7.89162,181.978)">
        <path d="M1674.5,785.738C1692.9,775.333 1714.45,784.818 1716.08,784.966" style="fill:none;stroke:white;stroke-width:8.68px;"/>
    </g>
    <g transform="matrix(1,0,0,1,-7.89162,181.978)">
        <path d="M1789.22,781.567C1785.68,774.907 1793.33,783.994 1797.97,794.415C1813.8,830.045 1807.6,831.174 1808.99,870.003C1808.99,842.373 1820.57,835.639 1797.97,824.335C1779.56,815.134 1760.27,844.41 1758.6,851.106C1757.43,855.783 1758.96,860.889 1804.26,857.405" style="fill:none;stroke:white;stroke-width:8.68px;"/>
    </g>
    <g transform="matrix(1,0,0,1,-7.89162,181.978)">
        <path d="M1852.75,741.319C1844.57,740.025 1849.41,745.763 1853.08,844.807C1853.24,848.991 1866.57,881.423 1901.9,825.91" style="fill:none;stroke:white;stroke-width:8.68px;"/>
    </g>
    <g transform="matrix(1,0,0,1,-7.89162,181.978)">
        <path d="M1834.18,772.368C1848.88,770.793 1863.58,769.219 1878.28,767.644" style="fill:none;stroke:white;stroke-width:8.68px;"/>
    </g>
    <g transform="matrix(1,0,0,1,-7.89162,181.978)">
        <path d="M1957.03,766.344C1929.27,750.099 1877.85,783.833 1938.12,807.013C1985.33,825.172 1966.38,855.84 1916.07,862.129" style="fill:none;stroke:white;stroke-width:8.68px;"/>
    </g>
    <g transform="matrix(1,0,0,1,-7.89162,181.978)">
        <path d="M1372.78,1065.27C1410.42,1042.69 1374.64,1002.5 1350.74,1029.05C1303.5,1081.53 1407.36,1074.58 1396.4,1052.67C1348.73,957.317 1422.53,1088.47 1413.73,1147.16C1411.24,1163.76 1363.96,1206.06 1368.06,1128.26C1371.47,1063.45 1405.08,1076.29 1420.03,1074.72C1475.35,1068.9 1450.93,976.977 1432.62,1022.75C1414.72,1067.51 1481.86,1071.24 1487.74,1071.57" style="fill:none;stroke:white;stroke-width:8.68px;"/>
    </g>
    <g transform="matrix(1,0,0,1,-7.89162,181.978)">
        <path d="M1498.33,941.519C1498,952.556 1494.57,1066.96 1503.49,1079.44C1516.95,1098.29 1553.43,1073.97 1557.03,1071.57" style="fill:none;stroke:white;stroke-width:8.68px;"/>
    </g>
    <g transform="matrix(1,0,0,1,-7.89162,181.978)">
        <path d="M1490.6,1005.12C1492.08,982.488 1500.23,987.728 1522.38,984.959" style="fill:none;stroke:white;stroke-width:8.68px;"/>
    </g>
    <g transform="matrix(1,0,0,1,-7.89162,181.978)">
        <path d="M1611.8,962.165C1599.37,986.398 1606.02,987.325 1609,1054.25" style="fill:none;stroke:white;stroke-width:8.68px;"/>
    </g>
    <g transform="matrix(1,0,0,1,-7.89162,181.978)">
        <path d="M1605.85,966.062C1635.47,943.845 1659.53,968.414 1662.54,984.959C1666.78,1008.28 1612.75,1027.19 1607.42,1029.05C1647.65,1051.18 1640.62,1060.61 1681.43,1081.02" style="fill:none;stroke:white;stroke-width:8.68px;"/>
    </g>
    <g transform="matrix(1,0,0,1,-7.89162,181.978)">
        <path d="M1690.88,1057.4C1729.41,1018.87 1708.69,997.513 1701.9,1007.01C1698.44,1011.85 1690.53,1039.98 1695.61,1052.67C1704.32,1074.47 1709.78,1068.2 1733.4,1071.57" style="fill:none;stroke:white;stroke-width:8.68px;"/>
    </g>
    <g transform="matrix(1,0,0,1,-7.89162,181.978)">
        <path d="M1755.16,1010.55C1752.88,1076.71 1763.08,1076.38 1768.05,1074.72C1773.04,1073.06 1770.09,1070.85 1791.67,1013.31C1796.14,1046.89 1789.39,1080.2 1820.01,1070" style="fill:none;stroke:white;stroke-width:8.68px;"/>
    </g>
    <g transform="matrix(1,0,0,1,-7.89162,181.978)">
        <path d="M1845.64,1055.38C1849.13,1056.73 1843.84,1062.66 1857.81,1066.85C1886.32,1075.4 1853.03,1005.73 1834.18,1035.35C1814.25,1066.68 1844.75,1073.24 1853.08,1071.57C1877.45,1066.7 1868.11,970.188 1867.25,961.338C1863.62,1014.08 1857.45,1048.1 1894.02,1081.02" style="fill:none;stroke:white;stroke-width:8.68px;"/>
    </g>
    <g transform="matrix(1,0,0,1,-7.89162,181.978)">
        <path d="M1927.09,1063.7C1951.58,1071.86 1967.26,1018.69 1953.87,1016.45C1923.11,1011.33 1919.5,1097.2 1991.66,1073.14" style="fill:none;stroke:white;stroke-width:8.68px;"/>
    </g>
    <g transform="matrix(1,0,0,1,-7.89162,181.978)">
        <path d="M2024.31,1011.8C2025.42,1015.81 2022.28,1015.06 2023.15,1021.18C2028.14,1056.09 2030.74,1054.93 2044.14,1080.25C2059.92,1010.44 2060.13,1010.19 2064.1,1005.43C2074.4,993.062 2076.73,1001.34 2105.04,1007.01" style="fill:none;stroke:white;stroke-width:8.68px;"/>
    </g>
    <g transform="matrix(1,0,0,1,-7.89162,181.978)">
        <path d="M2145.98,999.132C2102.13,994.259 2110.1,1029.27 2123.94,1038.5C2134.81,1045.75 2172.66,1059.16 2166.46,1071.57C2155.99,1092.5 2107.23,1089.25 2101.89,1088.89" style="fill:none;stroke:white;stroke-width:8.68px;"/>
    </g>
    <g transform="matrix(1,0,0,1,-7.89162,181.978)">
        <path d="M1905.05,260.575C1898.36,262.805 1836.64,336.029 1928.67,301.518" style="fill:none;stroke:white;stroke-width:8.68px;"/>
    </g>
    <g transform="matrix(1,0,0,1,-7.89162,181.978)">
        <path d="M1991.66,175.539C1944.86,269.143 2007.16,277.196 2008.98,277.897" style="fill:none;stroke:white;stroke-width:8.68px;"/>
    </g>
    <g transform="matrix(1,0,0,1,-7.89162,181.978)">
        <path d="M2050.44,259.377C2050.79,259.252 2051.14,259.126 2051.5,259" style="fill:none;stroke:white;stroke-width:8.68px;"/>
    </g>
    <g transform="matrix(1,0,0,1,-7.89162,181.978)">
        <path d="M2103.93,262.506C2101.51,262.267 2101.42,261.596 2103.47,260.575" style="fill:none;stroke:white;stroke-width:8.68px;"/>
    </g>
    <g transform="matrix(1,0,0,1,-7.89162,181.978)">
        <path d="M2154.09,261.463C2153.86,261.549 2154.08,262.064 2153.86,262.15C2153.86,262.15 nan,nan 2153.86,262.15" style="fill:none;stroke:white;stroke-width:8.68px;"/>
    </g>
    <g transform="matrix(1,0,0,1,-7.89162,181.978)">
        <path d="M2190.03,171.164C2196.51,201.221 2208.58,195.79 2215.27,225.931C2222.32,257.651 2209.43,273.988 2190.08,306.243" style="fill:none;stroke:white;stroke-width:8.68px;"/>
    </g>
    <g transform="matrix(1,0,0,1,-7.89162,181.978)">
        <path d="M2191.65,405.452C2178.54,422.935 2168.15,489.677 2208.97,518.834" style="fill:none;stroke:white;stroke-width:8.68px;"/>
    </g>
    <g transform="matrix(1,0,0,1,-7.89162,181.978)">
        <path d="M2255.23,504.832C2255.16,504.621 2255.44,505.459 2253.07,503.086" style="fill:none;stroke:white;stroke-width:8.68px;"/>
    </g>
    <g transform="matrix(1,0,0,1,-7.89162,181.978)">
        <path d="M2302.46,499.41C2301.17,497.054 2304.79,498.482 2305.03,498.362" style="fill:none;stroke:white;stroke-width:8.68px;"/>
    </g>
    <g transform="matrix(1,0,0,1,-7.89162,181.978)">
        <path d="M2361.6,510.462C2361.11,510.628 2360.63,510.794 2360.15,510.96" style="fill:none;stroke:white;stroke-width:8.68px;"/>
    </g>
    <g transform="matrix(1,0,0,1,-7.89162,181.978)">
        <path d="M2377.89,398.684C2383.83,417.344 2390.91,516.433 2391.64,526.707" style="fill:none;stroke:white;stroke-width:8.68px;"/>
    </g>
    <g transform="matrix(1,0,0,1,-7.89162,181.978)">
        <path d="M2075.12,591.272C2057.51,613.921 2043.93,668.428 2089.29,693.631" style="fill:none;stroke:white;stroke-width:8.68px;"/>
    </g>
    <g transform="matrix(1,0,0,1,-7.89162,181.978)">
        <path d="M2118.56,671.874C2117.73,671.778 2116.9,671.681 2116.06,671.584" style="fill:none;stroke:white;stroke-width:8.68px;"/>
    </g>
    <g transform="matrix(1,0,0,1,-7.89162,181.978)">
        <path d="M2171.43,673.542C2171.22,673.498 2168.3,672.886 2169.61,671.584C2169.89,671.303 2169.61,671.584 2174.33,670.01" style="fill:none;stroke:white;stroke-width:8.68px;"/>
    </g>
    <g transform="matrix(1,0,0,1,-7.89162,181.978)">
        <path d="M2230.57,678.13C2227.99,677.564 2229.92,678.824 2231.02,681.033" style="fill:none;stroke:white;stroke-width:8.68px;"/>
    </g>
    <g transform="matrix(1,0,0,1,-7.89162,181.978)">
        <path d="M2272.16,587.832C2302.48,663.252 2296.42,665.331 2286.14,692.056" style="fill:none;stroke:white;stroke-width:8.68px;"/>
    </g>
    <g transform="matrix(1,0,0,1,-7.89162,181.978)">
        <path d="M2042.5,768.221C2035.47,808.947 2007.33,846.338 2059.37,874.727" style="fill:none;stroke:white;stroke-width:8.68px;"/>
    </g>
    <g transform="matrix(1,0,0,1,-7.89162,181.978)">
        <path d="M2106.86,859.354C2107.3,859.229 2107.75,859.104 2108.19,858.979" style="fill:none;stroke:white;stroke-width:8.68px;"/>
    </g>
    <g transform="matrix(1,0,0,1,-7.89162,181.978)">
        <path d="M2157.22,861.231C2155.43,860.554 2158.47,862.07 2158.58,862.129" style="fill:none;stroke:white;stroke-width:8.68px;"/>
    </g>
    <g transform="matrix(1,0,0,1,-7.89162,181.978)">
        <path d="M2199.64,863.107C2200.13,863.831 2200.61,864.555 2201.1,865.278" style="fill:none;stroke:white;stroke-width:8.68px;"/>
    </g>
    <g transform="matrix(1,0,0,1,-7.89162,181.978)">
        <path d="M2243.11,781.567C2237.24,774.266 2257.23,804.184 2259.37,810.162C2274.54,852.64 2254.79,882.949 2248.34,896.773" style="fill:none;stroke:white;stroke-width:8.68px;"/>
    </g>
    <g transform="matrix(1,0,0,1,-7.89162,181.978)">
        <path d="M2224.72,981.81C2205.54,1029.77 2211.09,1091.72 2251.49,1096.77" style="fill:none;stroke:white;stroke-width:8.68px;"/>
    </g>
    <g transform="matrix(1,0,0,1,-7.89162,181.978)">
        <path d="M2276.34,1063.72C2274.63,1064.33 2273.16,1064.3 2275.11,1065.27" style="fill:none;stroke:white;stroke-width:8.68px;"/>
    </g>
    <g transform="matrix(1,0,0,1,-7.89162,181.978)">
        <path d="M2314.79,1066.85C2314.36,1064.61 2315.23,1065.36 2316.06,1063.7" style="fill:none;stroke:white;stroke-width:8.68px;"/>
    </g>
    <g transform="matrix(1,0,0,1,-7.89162,181.978)">
        <path d="M2369.54,1063.1C2369.03,1063.3 2368.53,1063.5 2368.02,1063.7" style="fill:none;stroke:white;stroke-width:8.68px;"/>
    </g>
    <g transform="matrix(1,0,0,1,-7.89162,181.978)">
        <path d="M2401.09,999.132C2441.07,1029.11 2406.41,1115.75 2402.67,1125.11" style="fill:none;stroke:white;stroke-width:8.68px;"/>
    </g>
    <path d="M582.259,159.791C587.107,158.175 713.319,148.203 837.368,192.861C978.196,243.559 1224.62,384.912 1246.8,396.003" style="fill:none;stroke:white;stroke-width:8.68px;"/>
    <path d="M626.352,202.309C596.421,187.344 564.905,147.129 571.236,159.791C572.239,161.797 572.053,158.391 593.282,142.469L601.156,137.745C603.475,135.89 605.136,133.301 607.455,131.446C608.793,130.375 608.738,130.512 624.777,118.848" style="fill:none;stroke:white;stroke-width:8.68px;"/>
    <path d="M674.353,216.209C683.92,216.51 711.377,224.958 714.538,225.931L723.987,229.08C805.673,263.116 874.784,259.047 1220.03,575.525C1233.76,588.11 1232.95,588.344 1248.38,599.146C1255.95,604.45 1256,603.615 1262.55,610.169" style="fill:none;stroke:white;stroke-width:8.68px;"/>
    <path d="M712.963,268.449C691.406,225.335 692.425,225.253 664.146,188.137C686.061,196.21 685.459,199.048 708.239,196.01C712.237,195.477 711.737,196.239 758.631,194.436" style="fill:none;stroke:white;stroke-width:8.68px;"/>
    <path d="M1250.28,630.583C1238.29,635.27 1127.28,743.973 1010.59,944.016C965.9,1020.63 947.814,1105.89 935.003,1125.11" style="fill:none;stroke:white;stroke-width:8.68px;"/>
    <path d="M916.343,1071.23C906.2,1143.64 922.62,1144.24 927.129,1140.86C954.827,1120.09 950.632,1113.49 983.82,1104.64" style="fill:none;stroke:white;stroke-width:8.68px;"/>
    <path d="M638.95,811.737C746.278,805.423 784.885,866.95 853.116,940.866C893.722,984.856 916.727,1060.21 923.98,1074.72" style="fill:none;stroke:white;stroke-width:8.68px;"/>
    <path d="M653.123,808.587C674.484,829.949 671.684,831.086 687.767,857.405C682.856,852.961 654.698,827.484 626.885,801.301C664.641,787.143 664.348,788.175 700.365,769.219" style="fill:none;stroke:white;stroke-width:8.68px;"/>
    <path d="M867.444,1181.76C806.219,1254.14 764.915,1266.65 753.907,1269.99C585.078,1321.15 571.452,1304.12 561.787,1292.04" style="fill:none;stroke:white;stroke-width:8.68px;"/>
    <path d="M610.605,1247.94C592.666,1271.86 584.945,1277.54 558.467,1314.73C630.063,1330.66 627.305,1337.08 637.375,1347.15" style="fill:none;stroke:white;stroke-width:8.68px;"/>
    <path d="M1289.32,840.082C1274.6,848.915 1130.08,958.905 1084.6,1018.03C1041.06,1074.64 986.958,1162.53 979.009,1175.44L980.013,1173.3L991.694,1151.88" style="fill:none;stroke:white;stroke-width:8.68px;"/>
    <path d="M1012.26,1081.24C1005.35,1084.12 997.363,1087.44 972.797,1166.06L972.797,1175.5C1030.22,1142.01 1037.89,1139.28 1056.26,1162.91" style="fill:none;stroke:white;stroke-width:8.68px;"/>
    <path d="M1270.97,1019.93C1256.69,1018.67 1248.32,958.854 1226.33,940.866C1104.93,841.535 1113,816.695 872.013,770.793C796.218,756.356 746.769,796.622 741.309,780.242C739.167,773.818 747.752,786.252 750.757,780.242" style="fill:none;stroke:white;stroke-width:8.68px;"/>
    <path d="M769.654,729.85C744.695,764.793 748.386,766.865 717.688,797.564C762.049,799.677 760.526,806.587 804.299,811.737" style="fill:none;stroke:white;stroke-width:8.68px;"/>
    <path d="M1295.42,1231.81C1285.55,1234.57 1258.15,1306.01 1183.81,1340.85C1113.08,1374.01 1081.6,1421.92 801.149,1408.57C702.009,1403.85 628.159,1350.15 590.527,1342.43C610.965,1365.79 608.685,1366.57 623.203,1394.39C618.741,1390.21 571.194,1345.64 582.259,1329.83C586.553,1323.69 591.382,1337.95 673.595,1309.36" style="fill:none;stroke:white;stroke-width:8.68px;"/>
    <path d="M1402.7,136.17C1451.18,144.25 1583.75,115.541 1588.52,129.871" style="fill:none;stroke:white;stroke-width:8.68px;"/>
    <path d="M1572.78,155.067C1560,116.735 1563.44,116.654 1558.6,76.329C1576.53,103.902 1574.34,105.851 1602.7,123.572C1605.99,125.629 1633.19,145.289 1574.35,162.941" style="fill:none;stroke:white;stroke-width:8.68px;"/>
    <path d="M1696.65,96.297C1694.25,97.458 1702.29,93.561 1728.68,87.353" style="fill:none;stroke:white;stroke-width:8.68px;"/>
    <path d="M1701.9,125.147C1714.5,123.572 1743.92,119.369 1747.57,118.848" style="fill:none;stroke:white;stroke-width:8.68px;"/>
    <path d="M1816.39,152.395C1818.7,157.744 1866.64,-19.951 1835.76,47.984C1803.86,118.153 1857.99,246.033 1885.65,128.474C1931.29,184.465 1923.44,121.692 1922.37,118.848C1909.26,83.874 1868.54,103.539 1889.3,136.17C1918.24,181.641 1940.3,150.752 1942.84,147.193" style="fill:none;stroke:white;stroke-width:8.68px;"/>
    <path d="M1991.3,113.606C1983.02,98.953 1974.53,82.065 1969.61,96.801C1951.75,150.379 1968.26,171.911 2021.58,151.917" style="fill:none;stroke:white;stroke-width:8.68px;"/>
    <path d="M2034.18,66.881C2028.82,115.068 2048.23,158.728 2051.5,166.09C2092.66,100.713 2105.05,101.528 2098.74,99.951C2086.3,96.841 2062.99,130.944 2078.27,148.768C2097.39,171.071 2122.29,155.505 2125.51,153.492" style="fill:none;stroke:white;stroke-width:8.68px;"/>
    <path d="M2182.72,94.837C2177.81,83.479 2130.91,101.977 2149.13,114.123C2160.63,121.787 2199.54,125.472 2208.97,133.02C2212.85,136.118 2219.63,153.627 2153.86,161.366" style="fill:none;stroke:white;stroke-width:8.68px;"/>
</svg>
